<?xml version="1.0" encoding="utf-8"?>
<svg version="1.1" xmlns:xlink="http://www.w3.org/1999/xlink" width="41px" height="39px" xmlns="http://www.w3.org/2000/svg">
  <g transform="matrix(1 0 0 1 -318 -779 )">
    <path d="M 25.3313802083333 24.095703125  C 26.666015625 22.826171875  27.3333333333333 21.2942708333333  27.3333333333333 19.5  C 27.3333333333333 17.7057291666667  26.666015625 16.173828125  25.3313802083333 14.904296875  C 23.9967447916667 13.634765625  22.3862847222222 13  20.5 13  C 18.6137152777778 13  17.0032552083333 13.634765625  15.6686197916667 14.904296875  C 14.333984375 16.173828125  13.6666666666667 17.7057291666667  13.6666666666667 19.5  C 13.6666666666667 21.2942708333333  14.333984375 22.826171875  15.6686197916667 24.095703125  C 17.0032552083333 25.365234375  18.6137152777778 26  20.5 26  C 22.3862847222222 26  23.9967447916667 25.365234375  25.3313802083333 24.095703125  Z M 40.7864583333333 16.1357421875  C 40.9288194444444 16.3134765625  41 16.5123697916667  41 16.732421875  L 41 22.369140625  C 41 22.572265625  40.9288194444444 22.7669270833333  40.7864583333333 22.953125  C 40.6440972222222 23.1393229166667  40.4661458333333 23.2493489583333  40.2526041666667 23.283203125  L 35.314453125 23.994140625  C 34.9763454861111 24.908203125  34.6293402777778 25.6783854166667  34.2734375 26.3046875  C 34.8962673611111 27.1510416666667  35.8483072916667 28.3190104166667  37.1295572916667 29.80859375  C 37.3075086805556 30.01171875  37.396484375 30.2233072916667  37.396484375 30.443359375  C 37.396484375 30.6634114583333  37.31640625 30.8580729166667  37.15625 31.02734375  C 36.67578125 31.6536458333333  35.794921875 32.5677083333333  34.513671875 33.76953125  C 33.232421875 34.9713541666667  32.3960503472222 35.572265625  32.0045572916667 35.572265625  C 31.791015625 35.572265625  31.5596788194444 35.49609375  31.310546875 35.34375  L 27.626953125 32.6015625  C 26.8439670138889 32.9908854166667  26.0342881944444 33.3125  25.1979166666667 33.56640625  C 24.9131944444444 35.8684895833333  24.6551649305556 37.4427083333333  24.423828125 38.2890625  C 24.2992621527778 38.7630208333333  23.9789496527778 39  23.462890625 39  L 17.537109375 39  C 17.2879774305556 39  17.0699869791667 38.9280598958333  16.8831380208333 38.7841796875  C 16.6962890625 38.6402994791667  16.5939670138889 38.4583333333333  16.576171875 38.23828125  L 15.8287760416667 33.56640625  C 14.9568142361111 33.2955729166667  14.1560329861111 32.982421875  13.4264322916667 32.626953125  L 9.66276041666667 35.34375  C 9.48480902777778 35.49609375  9.26236979166667 35.572265625  8.99544270833333 35.572265625  C 8.74631076388889 35.572265625  8.52387152777778 35.4791666666667  8.328125 35.29296875  C 6.0859375 33.36328125  4.61783854166667 31.94140625  3.923828125 31.02734375  C 3.79926215277778 30.8580729166667  3.73697916666667 30.6634114583333  3.73697916666667 30.443359375  C 3.73697916666667 30.240234375  3.80815972222222 30.0455729166667  3.95052083333333 29.859375  C 4.21744791666667 29.50390625  4.67122395833333 28.9410807291667  5.31184895833333 28.1708984375  C 5.95247395833333 27.4007161458333  6.43294270833333 26.8040364583333  6.75325520833333 26.380859375  C 6.27278645833333 25.5345052083333  5.90798611111111 24.6966145833333  5.65885416666667 23.8671875  L 0.774088541666667 23.181640625  C 0.542751736111111 23.1477864583333  0.355902777777778 23.0419921875  0.213541666666667 22.8642578125  C 0.0711805555555556 22.6865234375  0 22.4876302083333  0 22.267578125  L 0 16.630859375  C 0 16.427734375  0.0711805555555556 16.2330729166667  0.213541666666667 16.046875  C 0.355902777777778 15.8606770833333  0.524956597222222 15.7506510416667  0.720703125 15.716796875  L 5.685546875 15.005859375  C 5.93467881944444 14.2272135416667  6.28168402777778 13.4485677083333  6.7265625 12.669921875  C 6.01475694444444 11.705078125  5.06271701388889 10.537109375  3.87044270833333 9.166015625  C 3.69249131944444 8.962890625  3.603515625 8.759765625  3.603515625 8.556640625  C 3.603515625 8.38736979166666  3.68359375 8.19270833333333  3.84375 7.97265625  C 4.30642361111111 7.36328125  5.18283420138889 6.45345052083333  6.47298177083333 5.2431640625  C 7.76312934027778 4.03287760416666  8.60394965277778 3.427734375  8.99544270833333 3.427734375  C 9.22677951388889 3.427734375  9.45811631944445 3.51236979166666  9.689453125 3.681640625  L 13.373046875 6.3984375  C 14.1560329861111 6.00911458333333  14.9657118055556 5.6875  15.8020833333333 5.43359375  C 16.0868055555556 3.13151041666666  16.3448350694444 1.55729166666666  16.576171875 0.710937499999999  C 16.7007378472222 0.236979166666665  17.0210503472222 0  17.537109375 0  L 23.462890625 0  C 23.7120225694444 0  23.9300130208333 0.0719401041666633  24.1168619791667 0.215820312499999  C 24.3037109375 0.359700520833329  24.4060329861111 0.541666666666665  24.423828125 0.76171875  L 25.1712239583333 5.43359375  C 26.0431857638889 5.70442708333333  26.8439670138889 6.017578125  27.5735677083333 6.373046875  L 31.3639322916667 3.65625  C 31.5240885416667 3.50390625  31.7376302083333 3.427734375  32.0045572916667 3.427734375  C 32.2358940972222 3.427734375  32.4583333333333 3.51236979166666  32.671875 3.681640625  C 34.9674479166667 5.69596354166667  36.435546875 7.134765625  37.076171875 7.998046875  C 37.2007378472222 8.13346354166667  37.2630208333333 8.31966145833333  37.2630208333333 8.556640625  C 37.2630208333333 8.759765625  37.1918402777778 8.95442708333333  37.0494791666667 9.140625  C 36.7825520833333 9.49609375  36.3287760416667 10.0589192708333  35.6881510416667 10.8291015625  C 35.0475260416667 11.5992838541667  34.5670572916667 12.1959635416667  34.2467447916667 12.619140625  C 34.7094184027778 13.4654947916667  35.07421875 14.294921875  35.3411458333333 15.107421875  L 40.2259114583333 15.818359375  C 40.4572482638889 15.8522135416667  40.6440972222222 15.9580078125  40.7864583333333 16.1357421875  Z " fill-rule="nonzero" fill="#cccccc" stroke="none" transform="matrix(1 0 0 1 318 779 )" />
  </g>
</svg>