<?xml version="1.0" encoding="utf-8"?>
<svg version="1.1" xmlns:xlink="http://www.w3.org/1999/xlink" width="44px" height="43px" xmlns="http://www.w3.org/2000/svg">
  <g transform="matrix(1 0 0 1 -1627 -220 )">
    <path d="M 30.7410714285714 37.8289620535714  C 33.4419642857143 36.4292224702381  35.6599702380952 34.5295758928571  37.3950892857143 32.1300223214286  C 37.0349702380952 29.6504836309524  36.3188244047619 27.5908668154762  35.2466517857143 25.951171875  C 34.1744791666667 24.3114769345238  32.6644345238095 23.3636532738095  30.7165178571429 23.1077008928571  C 29.6197916666667 24.2914806547619  28.3143601190476 25.2153087797619  26.8002232142857 25.8791852678571  C 25.2860863095238 26.5430617559524  23.6860119047619 26.875  22 26.875  C 20.3139880952381 26.875  18.7139136904762 26.5430617559524  17.1997767857143 25.8791852678571  C 15.6856398809524 25.2153087797619  14.3802083333333 24.2914806547619  13.2834821428571 23.1077008928571  C 11.3355654761905 23.3636532738095  9.82552083333333 24.3114769345238  8.75334821428572 25.951171875  C 7.6811755952381 27.5908668154762  6.96502976190476 29.6504836309524  6.60491071428571 32.1300223214286  C 8.34002976190476 34.5295758928571  10.5580357142857 36.4292224702381  13.2589285714286 37.8289620535714  C 15.9598214285714 39.2287016369048  18.8735119047619 39.9285714285714  22 39.9285714285714  C 25.1264880952381 39.9285714285714  28.0401785714286 39.2287016369048  30.7410714285714 37.8289620535714  Z M 28.6662946428571 21.8719308035714  C 30.5078125 20.072265625  31.4285714285714 17.9006696428571  31.4285714285714 15.3571428571429  C 31.4285714285714 12.8136160714286  30.5078125 10.6420200892857  28.6662946428571 8.84235491071428  C 26.8247767857143 7.04268973214286  24.6026785714286 6.14285714285715  22 6.14285714285715  C 19.3973214285714 6.14285714285715  17.1752232142857 7.04268973214286  15.3337053571429 8.84235491071428  C 13.4921875 10.6420200892857  12.5714285714286 12.8136160714286  12.5714285714286 15.3571428571429  C 12.5714285714286 17.9006696428571  13.4921875 20.072265625  15.3337053571429 21.8719308035714  C 17.1752232142857 23.6715959821429  19.3973214285714 24.5714285714286  22 24.5714285714286  C 24.6026785714286 24.5714285714286  26.8247767857143 23.6715959821429  28.6662946428571 21.8719308035714  Z M 42.2566964285714 13.1495535714286  C 43.4188988095238 15.8050595238095  44 18.5885416666667  44 21.5  C 44 24.4114583333333  43.4188988095238 27.1909412202381  42.2566964285714 29.8384486607143  C 41.0944940476191 32.4859561011905  39.5353422619048 34.7735305059524  37.5792410714286 36.701171875  C 35.6231398809524 38.6288132440476  33.2864583333333 40.1605282738095  30.5691964285714 41.2963169642857  C 27.8519345238095 42.4321056547619  24.9955357142857 43  22 43  C 19.0208333333333 43  16.172619047619 42.4321056547619  13.4553571428571 41.2963169642857  C 10.7380952380952 40.1605282738095  8.39732142857143 38.6328125  6.43303571428571 36.7131696428571  C 4.46875 34.7935267857143  2.90550595238095 32.5059523809524  1.74330357142857 29.8504464285714  C 0.58110119047619 27.1949404761905  0 24.4114583333333  0 21.5  C 0 18.5885416666667  0.58110119047619 15.8050595238095  1.74330357142857 13.1495535714286  C 2.90550595238095 10.4940476190476  4.46875 8.20647321428572  6.43303571428571 6.28683035714286  C 8.39732142857143 4.3671875  10.7380952380952 2.83947172619047  13.4553571428571 1.70368303571429  C 16.172619047619 0.567894345238095  19.0208333333333 0  22 0  C 24.9791666666667 0  27.827380952381 0.567894345238095  30.5446428571429 1.70368303571429  C 33.2619047619048 2.83947172619047  35.6026785714286 4.3671875  37.5669642857143 6.28683035714286  C 39.53125 8.20647321428572  41.0944940476191 10.4940476190476  42.2566964285714 13.1495535714286  Z " fill-rule="nonzero" fill="#d7d7d7" stroke="none" transform="matrix(1 0 0 1 1627 220 )" />
  </g>
</svg>