<?xml version="1.0" encoding="utf-8"?>
<svg version="1.1" xmlns:xlink="http://www.w3.org/1999/xlink" width="56px" height="54px" xmlns="http://www.w3.org/2000/svg">
  <g transform="matrix(1 0 0 1 -298 -386 )">
    <path d="M 28 25.41375  C 28.6955128205128 25.41375  29.4134615384615 25.5375  30 25.785  L 30 45.36  C 30.1538461538462 47.7  29.3012820512821 49.725  27.5961538461538 51.435  C 25.8910256410256 53.145  23.8717948717949 54  21.5384615384615 54  C 19.2051282051282 54  17.1858974358974 53.145  15.4807692307692 51.435  C 13.775641025641 49.725  12.9230769230769 47.7  12.9230769230769 45.36  C 12.9230769230769 44.775  13.1362179487179 44.26875  13.5625 43.84125  C 13.9887820512821 43.41375  14.4935897435897 43.2  15.0769230769231 43.2  C 15.6602564102564 43.2  16.1650641025641 43.41375  16.5913461538462 43.84125  C 17.0176282051282 44.26875  17.2307692307692 44.775  17.2307692307692 45.36  C 17.2307692307692 46.485  17.6682692307692 47.48625  18.5432692307692 48.36375  C 19.4182692307692 49.24125  20.4166666666667 49.68  21.5384615384615 49.68  C 22.6602564102564 49.68  23.6586538461538 49.24125  24.5336538461538 48.36375  C 25.4086538461538 47.48625  25.8461538461538 46.485  26 45.36  L 26 25.785  C 26.5865384615385 25.5375  27.3044871794872 25.41375  28 25.41375  Z M 55.9663461538462 26.46  C 55.9887820512821 26.505  56 26.58375  56 26.69625  C 56 26.98875  55.8934294871795 27.241875  55.6802884615385 27.455625  C 55.4671474358974 27.669375  55.2147435897436 27.77625  54.9230769230769 27.77625  C 54.6762820512821 27.77625  54.4182692307692 27.66375  54.1490384615385 27.43875  C 53.0496794871795 26.40375  52.0064102564103 25.6275  51.0192307692308 25.11  C 50.0320512820513 24.5925  48.8878205128205 24.33375  47.5865384615385 24.33375  C 46.0608974358974 24.33375  44.625 24.75  43.2788461538462 25.5825  C 41.9326923076923 26.415  40.7772435897436 27.50625  39.8125 28.85625  C 39.6554487179487 29.08125  39.4591346153846 29.39625  39.2235576923077 29.80125  C 38.9879807692308 30.20625  38.8253205128205 30.47625  38.7355769230769 30.61125  C 38.4887820512821 30.99375  38.1746794871795 31.185  37.7932692307692 31.185  C 37.3894230769231 31.185  37.0641025641026 30.99375  36.8173076923077 30.61125  C 36.7275641025641 30.47625  36.5649038461538 30.20625  36.3293269230769 29.80125  C 36.09375 29.39625  35.8974358974359 29.08125  35.7403846153846 28.85625  C 34.775641025641 27.50625  33.6258012820513 26.415  32.2908653846154 25.5825  C 30.9559294871795 24.75  29.525641025641 24.33375  28 24.33375  C 26.474358974359 24.33375  25.0440705128205 24.75  23.7091346153846 25.5825  C 22.3741987179487 26.415  21.224358974359 27.50625  20.2596153846154 28.85625  C 20.1025641025641 29.08125  19.90625 29.39625  19.6706730769231 29.80125  C 19.4350961538462 30.20625  19.2724358974359 30.47625  19.1826923076923 30.61125  C 18.9358974358974 30.99375  18.6105769230769 31.185  18.2067307692308 31.185  C 17.8253205128205 31.185  17.5112179487179 30.99375  17.2644230769231 30.61125  C 17.1746794871795 30.47625  17.0120192307692 30.20625  16.7764423076923 29.80125  C 16.5408653846154 29.39625  16.3445512820513 29.08125  16.1875 28.85625  C 15.2227564102564 27.50625  14.0673076923077 26.415  12.7211538461538 25.5825  C 11.375 24.75  9.93910256410257 24.33375  8.41346153846154 24.33375  C 7.11217948717949 24.33375  5.96794871794872 24.5925  4.98076923076923 25.11  C 3.99358974358974 25.6275  2.95032051282051 26.40375  1.85096153846154 27.43875  C 1.58173076923077 27.66375  1.32371794871795 27.77625  1.07692307692308 27.77625  C 0.78525641025641 27.77625  0.532852564102564 27.669375  0.319711538461538 27.455625  C 0.106570512820513 27.241875  0 26.98875  0 26.69625  C 0 26.58375  0.0112179487179487 26.505  0.0336538461538462 26.46  C 1.04326923076923 22.3425  2.97836538461538 18.748125  5.83894230769231 15.676875  C 8.69951923076923 12.605625  12.042467948718 10.305  15.8677884615385 8.775  C 19.693108974359 7.24499999999999  23.7371794871795 6.48  28 6.48  C 31.1410256410256 6.48  34.2203525641026 6.93  37.2379807692308 7.83  C 40.255608974359 8.73  43.0208333333333 10.006875  45.5336538461538 11.660625  C 48.0464743589744 13.314375  50.2283653846154 15.418125  52.0793269230769 17.971875  C 53.9302884615385 20.525625  55.2259615384615 23.355  55.9663461538462 26.46  Z M 29.5144230769231 0.641249999999998  C 29.9407051282051 1.06874999999999  30.1538461538462 1.57499999999999  30.1538461538462 2.16  L 30.1538461538462 5.4675  C 29.2115384615385 5.4225  28.4935897435897 5.4  28 5.4  C 27.5064102564103 5.4  26.7884615384615 5.4225  25.8461538461538 5.4675  L 25.8461538461538 2.16  C 25.8461538461538 1.57499999999999  26.0592948717949 1.06874999999999  26.4855769230769 0.641249999999998  C 26.911858974359 0.213749999999997  27.4166666666667 0  28 0  C 28.5833333333333 0  29.088141025641 0.213749999999997  29.5144230769231 0.641249999999998  Z " fill-rule="nonzero" fill="#333333" stroke="none" transform="matrix(1 0 0 1 298 386 )" />
  </g>
</svg>