<?xml version="1.0" encoding="utf-8"?>
<svg version="1.1" xmlns:xlink="http://www.w3.org/1999/xlink" width="35px" height="28px" xmlns="http://www.w3.org/2000/svg">
  <g transform="matrix(1 0 0 1 -811 -303 )">
    <path d="M 32.5 2.33029908972692  L 32.5 9.32119635890767  C 33.1901041666667 9.32119635890767  33.779296875 9.54876462938882  34.267578125 10.0039011703511  C 34.755859375 10.4590377113134  35 11.0082358040746  35 11.6514954486346  C 35 12.2947550931946  34.755859375 12.8439531859558  34.267578125 13.2990897269181  C 33.779296875 13.7542262678804  33.1901041666667 13.9817945383615  32.5 13.9817945383615  L 32.5 20.9726918075423  C 32.5 21.6038144776766  32.2526041666667 22.1499783268314  31.7578125 22.6111833550065  C 31.2630208333333 23.0723883831816  30.6770833333333 23.3029908972692  30 23.3029908972692  C 24.5703125 19.0914607715648  19.2838541666667 16.7854356306892  14.140625 16.3849154746424  C 13.3854166666667 16.61551798873  12.79296875 17.0160381447768  12.36328125 17.5864759427828  C 11.93359375 18.1569137407889  11.7317708333333 18.7667967056784  11.7578125 19.4161248374512  C 11.7838541666667 20.0654529692241  12.0442708333333 20.6267880364109  12.5390625 21.1001300390117  C 12.2786458333333 21.5006501950585  12.12890625 21.8981361074989  12.08984375 22.2925877763329  C 12.05078125 22.6870394451669  12.08984375 23.0390117035111  12.20703125 23.3485045513654  C 12.32421875 23.6579973992198  12.5423177083333 23.9917641959254  12.861328125 24.3498049414824  C 13.1803385416667 24.7078456870394  13.4928385416667 25.011270047681  13.798828125 25.260078023407  C 14.1048177083333 25.5088859991331  14.5052083333333 25.815344603381  15 26.1794538361508  C 14.6223958333333 26.8833983528392  13.896484375 27.3870827915041  12.822265625 27.6905071521456  C 11.748046875 27.9939315127872  10.6510416666667 28.0637191157347  9.53125 27.8998699609883  C 8.41145833333333 27.7360208062419  7.55208333333333 27.3992197659298  6.953125 26.889466840052  C 6.86197916666667 26.6103164282618  6.669921875 26.0793237971391  6.376953125 25.296488946684  C 6.083984375 24.5136540962289  5.87565104166667 23.9401820546164  5.751953125 23.5760728218466  C 5.62825520833333 23.2119635890767  5.478515625 22.6718682271348  5.302734375 21.9557867360208  C 5.126953125 21.2397052449068  5.029296875 20.6267880364109  5.009765625 20.1170351105332  C 4.990234375 19.6072821846554  5.01302083333333 19.0095361941916  5.078125 18.3237971391417  C 5.14322916666667 17.6380580840919  5.28645833333333 16.9674902470741  5.5078125 16.3120936280884  L 3.125 16.3120936280884  C 2.265625 16.3120936280884  1.52994791666667 16.0268747290854  0.91796875 15.4564369310793  C 0.305989583333333 14.8859991330733  0 14.2002600780234  0 13.3992197659298  L 0 9.9037711313394  C 0 9.10273081924577  0.305989583333333 8.41699176419592  0.91796875 7.84655396618986  C 1.52994791666667 7.27611616818379  2.265625 6.99089726918075  3.125 6.99089726918075  L 12.5 6.99089726918075  C 18.1640625 6.99089726918075  23.9973958333333 4.66059817945384  30 0  C 30.6770833333333 0  31.2630208333333 0.230602514087557  31.7578125 0.691807542262679  C 32.2526041666667 1.1530125704378  32.5 1.69917641959254  32.5 2.33029908972692  Z M 15 14.1092327698309  C 19.9088541666667 14.6189856957087  24.9088541666667 16.6883398352839  30 20.3172951885566  L 30 2.94928478543563  C 24.8697916666667 6.61465106198526  19.8697916666667 8.69614217598613  15 9.19375812743823  L 15 14.1092327698309  Z " fill-rule="nonzero" fill="#333333" stroke="none" transform="matrix(1 0 0 1 811 303 )" />
  </g>
</svg>