<?xml version="1.0" encoding="utf-8"?>
<svg version="1.1" xmlns:xlink="http://www.w3.org/1999/xlink" width="34px" height="33px" xmlns="http://www.w3.org/2000/svg">
  <g transform="matrix(1 0 0 1 -804 -433 )">
    <path d="M 33.3802083333333 0.555288461538463  C 33.7934027777778 0.925480769230766  34 1.375  34 1.90384615384615  L 34 24.1153846153846  C 34 24.7764423076923  33.7491319444444 25.3647836538462  33.2473958333333 25.8804086538462  C 32.7456597222222 26.3960336538462  32.1111111111111 26.7959735576923  31.34375 27.0802283653846  C 30.5763888888889 27.3644831730769  29.8127170138889 27.5760216346154  29.052734375 27.71484375  C 28.2927517361111 27.8536658653846  27.5807291666667 27.9230769230769  26.9166666666667 27.9230769230769  C 26.2526041666667 27.9230769230769  25.5405815972222 27.8536658653846  24.7805989583333 27.71484375  C 24.0206163194444 27.5760216346154  23.2569444444444 27.3644831730769  22.4895833333333 27.0802283653846  C 21.7222222222222 26.7959735576923  21.0876736111111 26.3960336538462  20.5859375 25.8804086538462  C 20.0842013888889 25.3647836538462  19.8333333333333 24.7764423076923  19.8333333333333 24.1153846153846  C 19.8333333333333 23.4543269230769  20.0842013888889 22.8659855769231  20.5859375 22.3503605769231  C 21.0876736111111 21.8347355769231  21.7222222222222 21.4347956730769  22.4895833333333 21.1505408653846  C 23.2569444444444 20.8662860576923  24.0206163194444 20.6547475961538  24.7805989583333 20.5159254807692  C 25.5405815972222 20.3771033653846  26.2526041666667 20.3076923076923  26.9166666666667 20.3076923076923  C 28.4661458333333 20.3076923076923  29.8828125 20.5655048076923  31 21.0811298076923  L 31 10.4314903846154  L 14.1666666666667 15.1316105769231  L 14.1666666666667 29.1923076923077  C 14.1666666666667 29.8533653846154  13.9157986111111 30.4417067307692  13.4140625 30.9573317307692  C 12.9123263888889 31.4729567307692  12.2777777777778 31.8728966346154  11.5104166666667 32.1571514423077  C 10.7430555555556 32.44140625  9.97938368055556 32.6529447115385  9.21940104166667 32.7917668269231  C 8.45941840277778 32.9305889423077  7.74739583333333 33  7.08333333333333 33  C 6.41927083333333 33  5.70724826388889 32.9305889423077  4.947265625 32.7917668269231  C 4.18728298611111 32.6529447115385  3.42361111111111 32.44140625  2.65625 32.1571514423077  C 1.88888888888889 31.8728966346154  1.25434027777778 31.4729567307692  0.752604166666667 30.9573317307692  C 0.250868055555556 30.4417067307692  0 29.8533653846154  0 29.1923076923077  C 0 28.53125  0.250868055555556 27.9429086538462  0.752604166666667 27.4272836538462  C 1.25434027777778 26.9116586538462  1.88888888888889 26.51171875  2.65625 26.2274639423077  C 3.42361111111111 25.9432091346154  4.18728298611111 25.7316706730769  4.947265625 25.5928485576923  C 5.70724826388889 25.4540264423077  6.41927083333333 25.3846153846154  7.08333333333333 25.3846153846154  C 8.6328125 25.3846153846154  10.0494791666667 25.6424278846154  12 26.1580528846154  L 12 6.98076923076923  C 11.3333333333333 6.57091346153846  11.4735243055556 6.19741586538461  11.75390625 5.86027644230769  C 12.0342881944444 5.52313701923077  12.3958333333333 5.28846153846153  12.8385416666667 5.15625  L 31.2552083333333 0.0793269230769228  C 31.4322916666667 0.0264423076923076  31.6388888888889 0  31.875 0  C 32.4652777777778 0  32.9670138888889 0.185096153846153  33.3802083333333 0.555288461538463  Z " fill-rule="nonzero" fill="#333333" stroke="none" transform="matrix(1 0 0 1 804 433 )" />
  </g>
</svg>