<?xml version="1.0" encoding="utf-8"?>
<svg version="1.1" xmlns:xlink="http://www.w3.org/1999/xlink" width="23px" height="19px" xmlns="http://www.w3.org/2000/svg">
  <g transform="matrix(1 0 0 1 -832 -364 )">
    <path d="M 22.5426136363636 7.28693181818182  C 22.8475378787879 7.53882575757575  23 7.84469696969697  23 8.20454545454545  L 23 10.7954545454545  C 23 11.155303030303  22.8475378787879 11.4611742424242  22.5426136363636 11.7130681818182  C 22.2376893939394 11.9649621212121  21.8674242424242 12.0909090909091  21.4318181818182 12.0909090909091  L 14.6363636363636 12.0909090909091  L 14.6363636363636 17.7045454545455  C 14.6363636363636 18.0643939393939  14.4839015151515 18.3702651515151  14.1789772727273 18.6221590909091  C 13.874053030303 18.874053030303  13.5037878787879 19  13.0681818181818 19  L 9.93181818181818 19  C 9.49621212121212 19  9.12594696969697 18.874053030303  8.82102272727273 18.6221590909091  C 8.51609848484849 18.3702651515151  8.36363636363636 18.0643939393939  8.36363636363636 17.7045454545455  L 8.36363636363636 12.0909090909091  L 1.56818181818182 12.0909090909091  C 1.13257575757576 12.0909090909091  0.762310606060606 11.9649621212121  0.457386363636364 11.7130681818182  C 0.152462121212121 11.4611742424242  0 11.155303030303  0 10.7954545454545  L 0 8.20454545454545  C 0 7.84469696969697  0.152462121212121 7.53882575757575  0.457386363636364 7.28693181818182  C 0.762310606060606 7.03503787878788  1.13257575757576 6.90909090909091  1.56818181818182 6.90909090909091  L 8.36363636363636 6.90909090909091  L 8.36363636363636 1.29545454545455  C 8.36363636363636 0.93560606060606  8.51609848484849 0.629734848484847  8.82102272727273 0.377840909090909  C 9.12594696969697 0.125946969696969  9.49621212121212 0  9.93181818181818 0  L 13.0681818181818 0  C 13.5037878787879 0  13.874053030303 0.125946969696969  14.1789772727273 0.377840909090909  C 14.4839015151515 0.629734848484847  14.6363636363636 0.93560606060606  14.6363636363636 1.29545454545455  L 14.6363636363636 6.90909090909091  L 21.4318181818182 6.90909090909091  C 21.8674242424242 6.90909090909091  22.2376893939394 7.03503787878788  22.5426136363636 7.28693181818182  Z " fill-rule="nonzero" fill="#999999" stroke="none" transform="matrix(1 0 0 1 832 364 )" />
  </g>
</svg>