<?xml version="1.0" encoding="utf-8"?>
<svg version="1.1" xmlns:xlink="http://www.w3.org/1999/xlink" width="47px" height="50px" xmlns="http://www.w3.org/2000/svg">
  <g transform="matrix(1 0 0 1 -1013 -427 )">
    <path d="M 30.5581597222222 0.78125  C 31.0749421296296 1.30208333333333  31.3333333333333 1.9188596491228  31 2.63157894736842  L 31 47.3684210526316  C 31.3333333333333 48.0811403508772  31.0749421296296 48.6979166666667  30.5581597222222 49.21875  C 30.0413773148148 49.7395833333333  29.4293981481481 50  28.7222222222222 50  C 28.0150462962963 50  27.4030671296296 49.7395833333333  26.8862847222222 49.21875  L 13.3003472222222 35  L 2.61111111111111 35  C 1.90393518518519 35.5263157894737  1.29195601851852 35.265899122807  0.775173611111111 34.7450657894737  C 0.258391203703704 34.2242324561403  0 33.6074561403509  0 32.8947368421053  L 0 17.1052631578947  C 0 16.3925438596491  0.258391203703704 15.7757675438596  0.775173611111111 15.2549342105263  C 1.29195601851852 14.734100877193  1.90393518518519 14.4736842105263  2.61111111111111 15  L 13.3003472222222 15  L 26.8862847222222 0.78125  C 27.4030671296296 0.260416666666663  28.0150462962963 0  28.7222222222222 0  C 29.4293981481481 0  30.0413773148148 0.260416666666663  30.5581597222222 0.78125  Z M 45.2660590277778 19.1611842105263  C 46.4220196759259 20.9703947368421  47 22.9166666666667  47 25  C 47 27.0833333333333  46.4220196759259 29.0227521929825  45.2660590277778 30.8182565789474  C 44.1100983796296 32.6137609649123  42.580150462963 33.8952850877193  40.6762152777778 34.6628289473684  C 40.404224537037 34.7998903508772  40.0642361111111 34.8684210526316  39.65625 34.8684210526316  C 38.9490740740741 34.8684210526316  38.3370949074074 34.6148574561403  37.8203125 34.1077302631579  C 37.3035300925926 33.6006030701754  37.0451388888889 32.9769736842105  37.0451388888889 32.2368421052632  C 37.0451388888889 31.6611842105263  37.2083333333333 31.1746162280702  37.5347222222222 30.7771381578947  C 37.8611111111111 30.3796600877193  38.2554976851852 30.0370065789474  38.7178819444444 29.7491776315789  C 39.1802662037037 29.4613486842105  39.642650462963 29.1461074561403  40.1050347222222 28.8034539473684  C 40.5674189814815 28.4608004385965  40.9618055555556 27.9742324561403  41.2881944444444 27.34375  C 41.6145833333333 26.7132675438596  41.7777777777778 25.9320175438596  41.7777777777778 25  C 41.7777777777778 24.0679824561403  41.6145833333333 23.2867324561403  41.2881944444444 22.65625  C 40.9618055555556 22.0257675438596  40.5674189814815 21.5391995614035  40.1050347222222 21.1965460526316  C 39.642650462963 20.8538925438596  39.1802662037037 20.5386513157895  38.7178819444444 20.2508223684211  C 38.2554976851852 19.9629934210526  37.8611111111111 19.6203399122807  37.5347222222222 19.2228618421053  C 37.2083333333333 18.8253837719298  37.0451388888889 18.3388157894737  37.0451388888889 17.7631578947368  C 37.0451388888889 17.0230263157895  37.3035300925926 16.3993969298246  37.8203125 15.8922697368421  C 38.3370949074074 15.3851425438596  38.9490740740741 15.1315789473684  39.65625 15.1315789473684  C 40.0642361111111 15.1315789473684  40.404224537037 15.2001096491228  40.6762152777778 15.3371710526316  C 42.580150462963 16.0773026315789  44.1100983796296 17.3519736842105  45.2660590277778 19.1611842105263  Z " fill-rule="nonzero" fill="#333333" stroke="none" transform="matrix(1 0 0 1 1013 427 )" />
  </g>
</svg>