<?xml version="1.0" encoding="utf-8"?>
<svg version="1.1" xmlns:xlink="http://www.w3.org/1999/xlink" width="41px" height="37px" xmlns="http://www.w3.org/2000/svg">
  <g transform="matrix(1 0 0 1 -793 -130 )">
    <path d="M 23.0625 30.9778645833333  C 23.5251736111111 30.9778645833333  23.9255642361111 30.8253038194444  24.263671875 30.5201822916667  L 26.986328125 28.0631510416667  C 27.3244357638889 27.7580295138889  27.4934895833333 27.3967013888889  27.4934895833333 26.9791666666667  C 27.4934895833333 26.5616319444444  27.3244357638889 26.2003038194444  26.986328125 25.8951822916667  L 18.7916666666667 18.5  L 26.986328125 11.1048177083333  C 27.3244357638889 10.7996961805556  27.4934895833333 10.4383680555556  27.4934895833333 10.0208333333333  C 27.4934895833333 9.60329861111111  27.3244357638889 9.24197048611111  26.986328125 8.93684895833333  L 24.263671875 6.47981770833333  C 23.9255642361111 6.17469618055555  23.5251736111111 6.02213541666667  23.0625 6.02213541666667  C 22.5998263888889 6.02213541666667  22.1994357638889 6.17469618055555  21.861328125 6.47981770833333  L 9.74283854166667 17.416015625  C 9.40473090277778 17.7211371527778  9.23567708333333 18.0824652777778  9.23567708333333 18.5  C 9.23567708333333 18.9175347222222  9.40473090277778 19.2788628472222  9.74283854166667 19.583984375  L 21.861328125 30.5201822916667  C 22.1994357638889 30.8253038194444  22.5998263888889 30.9778645833333  23.0625 30.9778645833333  Z M 38.2506510416667 9.2138671875  C 40.0835503472222 12.0482855902778  41 15.1436631944444  41 18.5  C 41 21.8563368055556  40.0835503472222 24.9517144097222  38.2506510416667 27.7861328125  C 36.4177517361111 30.6205512152778  33.9308810763889 32.8648003472222  30.7900390625 34.5188802083333  C 27.6491970486111 36.1729600694444  24.2191840277778 37  20.5 37  C 16.7808159722222 37  13.3508029513889 36.1729600694444  10.2099609375 34.5188802083333  C 7.06911892361111 32.8648003472222  4.58224826388889 30.6205512152778  2.74934895833333 27.7861328125  C 0.916449652777778 24.9517144097222  0 21.8563368055556  0 18.5  C 0 15.1436631944444  0.916449652777778 12.0482855902778  2.74934895833333 9.2138671875  C 4.58224826388889 6.37944878472222  7.06911892361111 4.13519965277777  10.2099609375 2.48111979166667  C 13.3508029513889 0.827039930555552  16.7808159722222 0  20.5 0  C 24.2191840277778 0  27.6491970486111 0.827039930555552  30.7900390625 2.48111979166667  C 33.9308810763889 4.13519965277777  36.4177517361111 6.37944878472222  38.2506510416667 9.2138671875  Z " fill-rule="nonzero" fill="#999999" stroke="none" transform="matrix(1 0 0 1 793 130 )" />
  </g>
</svg>