<?xml version="1.0" encoding="utf-8"?>
<svg version="1.1" xmlns:xlink="http://www.w3.org/1999/xlink" width="42px" height="41px" xmlns="http://www.w3.org/2000/svg">
  <g transform="matrix(1 0 0 1 -1053 -130 )">
    <path d="M 34.6171875 17.376953125  C 34.9453125 17.056640625  35.109375 16.65625  35.109375 16.17578125  C 35.109375 15.6775173611111  34.9453125 15.2682291666667  34.6171875 14.9479166666667  L 32.12890625 12.5455729166667  C 31.7825520833333 12.2074652777778  31.3723958333333 12.0384114583333  30.8984375 12.0384114583333  C 30.4244791666667 12.0384114583333  30.0143229166667 12.2074652777778  29.66796875 12.5455729166667  L 18.51171875 23.4095052083333  L 12.33203125 17.376953125  C 11.9856770833333 17.0388454861111  11.5755208333333 16.8697916666667  11.1015625 16.8697916666667  C 10.6276041666667 16.8697916666667  10.2174479166667 17.0388454861111  9.87109375 17.376953125  L 7.3828125 19.779296875  C 7.0546875 20.099609375  6.890625 20.5088975694444  6.890625 21.0071614583333  C 6.890625 21.4876302083333  7.0546875 21.8880208333333  7.3828125 22.2083333333333  L 17.28125 31.87109375  C 17.6276041666667 32.2092013888889  18.0377604166667 32.3782552083333  18.51171875 32.3782552083333  C 19.00390625 32.3782552083333  19.4231770833333 32.2092013888889  19.76953125 31.87109375  L 34.6171875 17.376953125  Z M 39.18359375 10.2099609375  C 41.0611979166667 13.3508029513889  42 16.7808159722222  42 20.5  C 42 24.2191840277778  41.0611979166667 27.6491970486111  39.18359375 30.7900390625  C 37.3059895833333 33.9308810763889  34.7584635416667 36.4177517361111  31.541015625 38.2506510416667  C 28.3235677083333 40.0835503472222  24.8098958333333 41  21 41  C 17.1901041666667 41  13.6764322916667 40.0835503472222  10.458984375 38.2506510416667  C 7.24153645833333 36.4177517361111  4.69401041666667 33.9308810763889  2.81640625 30.7900390625  C 0.938802083333333 27.6491970486111  0 24.2191840277778  0 20.5  C 0 16.7808159722222  0.938802083333333 13.3508029513889  2.81640625 10.2099609375  C 4.69401041666667 7.06911892361111  7.24153645833333 4.58224826388888  10.458984375 2.74934895833333  C 13.6764322916667 0.916449652777774  17.1901041666667 0  21 0  C 24.8098958333333 0  28.3235677083333 0.916449652777774  31.541015625 2.74934895833333  C 34.7584635416667 4.58224826388888  37.3059895833333 7.06911892361111  39.18359375 10.2099609375  Z " fill-rule="nonzero" fill="#333333" stroke="none" transform="matrix(1 0 0 1 1053 130 )" />
  </g>
</svg>