<?xml version="1.0" encoding="utf-8"?>
<svg version="1.1" xmlns:xlink="http://www.w3.org/1999/xlink" width="25px" height="24px" xmlns="http://www.w3.org/2000/svg">
  <g transform="matrix(1 0 0 1 -1020 -434 )">
    <path d="M 6.2255859375 1.609375  C 8.14073350694444 0.536458333333331  10.2322048611111 0  12.5 0  C 14.7677951388889 0  16.8592664930556 0.536458333333331  18.7744140625 1.609375  C 20.6895616319444 2.68229166666666  22.2059461805556 4.13802083333333  23.3235677083333 5.9765625  C 24.4411892361111 7.81510416666666  25 9.82291666666666  25 12  C 25 14.1770833333333  24.4411892361111 16.1848958333333  23.3235677083333 18.0234375  C 22.2059461805556 19.8619791666667  20.6895616319444 21.3177083333333  18.7744140625 22.390625  C 16.8592664930556 23.4635416666667  14.7677951388889 24  12.5 24  C 10.2322048611111 24  8.14073350694444 23.4635416666667  6.2255859375 22.390625  C 4.31043836805556 21.3177083333333  2.79405381944444 19.8619791666667  1.67643229166667 18.0234375  C 0.558810763888889 16.1848958333333  0 14.1770833333333  0 12  C 0 9.82291666666666  0.558810763888889 7.81510416666666  1.67643229166667 5.9765625  C 2.79405381944444 4.13802083333333  4.31043836805556 2.68229166666666  6.2255859375 1.609375  Z M 14.4368489583333 19.8515625  C 14.5345052083333 19.7526041666667  14.5833333333333 19.6302083333333  14.5833333333333 19.484375  L 14.5833333333333 16.515625  C 14.5833333333333 16.3697916666667  14.5345052083333 16.2473958333333  14.4368489583333 16.1484375  C 14.3391927083333 16.0494791666667  14.2198350694444 16  14.0787760416667 16  L 10.9537760416667 16  C 10.8127170138889 16  10.6879340277778 16.0520833333333  10.5794270833333 16.15625  C 10.4709201388889 16.2604166666667  10.4166666666667 16.3802083333333  10.4166666666667 16.515625  L 10.4166666666667 19.484375  C 10.4166666666667 19.6197916666667  10.4709201388889 19.7395833333333  10.5794270833333 19.84375  C 10.6879340277778 19.9479166666667  10.8127170138889 20  10.9537760416667 20  L 14.0787760416667 20  C 14.2198350694444 20  14.3391927083333 19.9505208333333  14.4368489583333 19.8515625  Z M 14.3798828125 14.3828125  C 14.4829644097222 14.3046875  14.5399305555556 14.2135416666667  14.55078125 14.109375  L 14.84375 4.40625  C 14.84375 4.28125  14.7894965277778 4.1875  14.6809895833333 4.125  C 14.5724826388889 4.04166666666666  14.4422743055556 4  14.2903645833333 4  L 10.7096354166667 4  C 10.5577256944444 4  10.4275173611111 4.04166666666666  10.3190104166667 4.125  C 10.2105034722222 4.1875  10.15625 4.28125  10.15625 4.40625  L 10.4329427083333 14.109375  C 10.4329427083333 14.2135416666667  10.4871961805556 14.3046875  10.595703125 14.3828125  C 10.7042100694444 14.4609375  10.8344184027778 14.5  10.986328125 14.5  L 13.9973958333333 14.5  C 14.1493055555556 14.5  14.2768012152778 14.4609375  14.3798828125 14.3828125  Z " fill-rule="nonzero" fill="#999999" stroke="none" transform="matrix(1 0 0 1 1020 434 )" />
  </g>
</svg>