<?xml version="1.0" encoding="utf-8"?>
<svg version="1.1" xmlns:xlink="http://www.w3.org/1999/xlink" width="12px" height="34px" xmlns="http://www.w3.org/2000/svg">
  <g transform="matrix(1 0 0 1 -1026 -372 )">
    <path d="M 10.6547085201794 25.9588068181818  C 10.9955156950673 26.264678030303  11.1659192825112 26.6268939393939  11.1659192825112 27.0454545454545  L 11.1659192825112 32.4545454545455  C 11.1659192825112 32.8731060606061  10.9955156950673 33.235321969697  10.6547085201794 33.5411931818182  C 10.3139013452915 33.8470643939394  9.91031390134529 34  9.44394618834081 34  L 2.55605381165919 34  C 2.08968609865471 34  1.68609865470852 33.8470643939394  1.34529147982063 33.5411931818182  C 1.00448430493274 33.235321969697  0.834080717488789 32.8731060606061  0.834080717488789 32.4545454545455  L 0.834080717488789 27.0454545454545  C 0.834080717488789 26.6268939393939  1.00448430493274 26.264678030303  1.34529147982063 25.9588068181818  C 1.68609865470852 25.6529356060606  2.08968609865471 25.5  2.55605381165919 25.5  L 9.44394618834081 25.5  C 9.91031390134529 25.5  10.3139013452915 25.6529356060606  10.6547085201794 25.9588068181818  Z M 11.5022421524664 0.45880681818182  C 11.8340807174888 0.764678030303026  11.9910313901345 1.12689393939394  11.9730941704036 1.54545454545454  L 11.219730941704 20.0909090909091  C 11.2017937219731 20.5094696969697  11.0179372197309 20.8716856060606  10.6681614349776 21.1775568181818  C 10.3183856502242 21.483428030303  9.91031390134529 21.6363636363636  9.44394618834081 21.6363636363636  L 2.55605381165919 21.6363636363636  C 2.08968609865471 21.6363636363636  1.68161434977578 21.483428030303  1.33183856502242 21.1775568181818  C 0.982062780269058 20.8716856060606  0.798206278026906 20.5094696969697  0.780269058295964 20.0909090909091  L 0.0269058295964126 1.54545454545454  C 0.00896860986547111 1.12689393939394  0.165919282511211 0.764678030303026  0.497757847533632 0.45880681818182  C 0.829596412556054 0.152935606060603  1.22869955156951 0  1.69506726457399 0  L 10.304932735426 0  C 10.7713004484305 0  11.1704035874439 0.152935606060603  11.5022421524664 0.45880681818182  Z " fill-rule="nonzero" fill="#000000" stroke="none" transform="matrix(1 0 0 1 1026 372 )" />
  </g>
</svg>