<?xml version="1.0" encoding="utf-8"?>
<svg version="1.1" xmlns:xlink="http://www.w3.org/1999/xlink" width="34px" height="28px" xmlns="http://www.w3.org/2000/svg">
  <g transform="matrix(1 0 0 1 -1027 -275 )">
    <path d="M 33.3858064516129 3.86531986531987  C 33.7952688172043 4.30527497194164  34 4.83950617283951  34 5.46801346801347  C 34 6.09652076318743  33.7952688172043 6.6307519640853  33.3858064516129 7.07070707070707  L 17.5045161290323 24.1346801346801  L 14.5212903225806 27.3400673400673  C 14.1118279569892 27.7800224466891  13.614623655914 28  13.0296774193548 28  C 12.4447311827957 28  11.9475268817204 27.7800224466891  11.538064516129 27.3400673400673  L 8.55483870967742 24.1346801346801  L 0.614193548387097 15.6026936026936  C 0.204731182795699 15.1627384960718  0 14.628507295174  0 14  C 0 13.371492704826  0.204731182795699 12.8372615039282  0.614193548387097 12.3973063973064  L 3.59741935483871 9.19191919191919  C 4.00688172043011 8.75196408529742  4.50408602150538 8.53198653198653  5.08903225806452 8.53198653198653  C 5.67397849462366 8.53198653198653  6.17118279569893 8.75196408529742  6.58064516129032 9.19191919191919  L 13.0296774193548 16.1447811447811  L 27.4193548387097 0.65993265993266  C 27.8288172043011 0.219977553310886  28.3260215053764 0  28.9109677419355 0  C 29.4959139784946 0  29.9931182795699 0.219977553310886  30.4025806451613 0.65993265993266  L 33.3858064516129 3.86531986531987  Z " fill-rule="nonzero" fill="#999999" stroke="none" transform="matrix(1 0 0 1 1027 275 )" />
  </g>
</svg>