<?xml version="1.0" encoding="utf-8"?>
<svg version="1.1" xmlns:xlink="http://www.w3.org/1999/xlink" width="46px" height="47px" xmlns="http://www.w3.org/2000/svg">
  <g transform="matrix(1 0 0 1 -1001 -80 )">
    <path d="M 37.9140625 19.919921875  C 38.2734375 19.552734375  38.453125 19.09375  38.453125 18.54296875  C 38.453125 17.9717881944444  38.2734375 17.5026041666667  37.9140625 17.1354166666667  L 35.1888020833333 14.3815104166667  C 34.8094618055556 13.9939236111111  34.3602430555556 13.8001302083333  33.8411458333333 13.8001302083333  C 33.3220486111111 13.8001302083333  32.8728298611111 13.9939236111111  32.4934895833333 14.3815104166667  L 20.2747395833333 26.8352864583333  L 13.5065104166667 19.919921875  C 13.1271701388889 19.5323350694444  12.6779513888889 19.3385416666667  12.1588541666667 19.3385416666667  C 11.6397569444444 19.3385416666667  11.1905381944444 19.5323350694444  10.8111979166667 19.919921875  L 8.0859375 22.673828125  C 7.7265625 23.041015625  7.546875 23.5101996527778  7.546875 24.0813802083333  C 7.546875 24.6321614583333  7.7265625 25.0911458333333  8.0859375 25.4583333333333  L 18.9270833333333 36.53515625  C 19.3064236111111 36.9227430555556  19.7556423611111 37.1165364583333  20.2747395833333 37.1165364583333  C 20.8138020833333 37.1165364583333  21.2730034722222 36.9227430555556  21.65234375 36.53515625  L 37.9140625 19.919921875  Z M 42.9153645833333 11.7041015625  C 44.9717881944444 15.3045789930556  46 19.2365451388889  46 23.5  C 46 27.7634548611111  44.9717881944444 31.6954210069444  42.9153645833333 35.2958984375  C 40.8589409722222 38.8963758680556  38.0687934027778 41.7471788194444  34.544921875 43.8483072916667  C 31.0210503472222 45.9494357638889  27.1727430555556 47  23 47  C 18.8272569444444 47  14.9789496527778 45.9494357638889  11.455078125 43.8483072916667  C 7.93120659722222 41.7471788194444  5.14105902777778 38.8963758680556  3.08463541666667 35.2958984375  C 1.02821180555556 31.6954210069444  0 27.7634548611111  0 23.5  C 0 19.2365451388889  1.02821180555556 15.3045789930556  3.08463541666667 11.7041015625  C 5.14105902777778 8.10362413194444  7.93120659722222 5.25282118055555  11.455078125 3.15169270833333  C 14.9789496527778 1.05056423611111  18.8272569444444 0  23 0  C 27.1727430555556 0  31.0210503472222 1.05056423611111  34.544921875 3.15169270833333  C 38.0687934027778 5.25282118055555  40.8589409722222 8.10362413194444  42.9153645833333 11.7041015625  Z " fill-rule="nonzero" fill="#333333" stroke="none" transform="matrix(1 0 0 1 1001 80 )" />
  </g>
</svg>