<?xml version="1.0" encoding="utf-8"?>
<svg version="1.1" xmlns:xlink="http://www.w3.org/1999/xlink" width="49px" height="45px" xmlns="http://www.w3.org/2000/svg">
  <g transform="matrix(1 0 0 1 -729 -80 )">
    <path d="M 27.5625 37.67578125  C 28.1154513888889 37.67578125  28.5939670138889 37.490234375  28.998046875 37.119140625  L 32.251953125 34.130859375  C 32.6560329861111 33.759765625  32.8580729166667 33.3203125  32.8580729166667 32.8125  C 32.8580729166667 32.3046875  32.6560329861111 31.865234375  32.251953125 31.494140625  L 22.4583333333333 22.5  L 32.251953125 13.505859375  C 32.6560329861111 13.134765625  32.8580729166667 12.6953125  32.8580729166667 12.1875  C 32.8580729166667 11.6796875  32.6560329861111 11.240234375  32.251953125 10.869140625  L 28.998046875 7.880859375  C 28.5939670138889 7.509765625  28.1154513888889 7.32421875  27.5625 7.32421875  C 27.0095486111111 7.32421875  26.5310329861111 7.509765625  26.126953125 7.880859375  L 11.6438802083333 21.181640625  C 11.2398003472222 21.552734375  11.0377604166667 21.9921875  11.0377604166667 22.5  C 11.0377604166667 23.0078125  11.2398003472222 23.447265625  11.6438802083333 23.818359375  L 26.126953125 37.119140625  C 26.5310329861111 37.490234375  27.0095486111111 37.67578125  27.5625 37.67578125  Z M 45.7141927083333 11.2060546875  C 47.9047309027778 14.6533203125  49 18.41796875  49 22.5  C 49 26.58203125  47.9047309027778 30.3466796875  45.7141927083333 33.7939453125  C 43.5236545138889 37.2412109375  40.5515407986111 39.970703125  36.7978515625 41.982421875  C 33.0441623263889 43.994140625  28.9448784722222 45  24.5 45  C 20.0551215277778 45  15.9558376736111 43.994140625  12.2021484375 41.982421875  C 8.44845920138889 39.970703125  5.47634548611111 37.2412109375  3.28580729166667 33.7939453125  C 1.09526909722222 30.3466796875  0 26.58203125  0 22.5  C 0 18.41796875  1.09526909722222 14.6533203125  3.28580729166667 11.2060546875  C 5.47634548611111 7.7587890625  8.44845920138889 5.029296875  12.2021484375 3.017578125  C 15.9558376736111 1.005859375  20.0551215277778 0  24.5 0  C 28.9448784722222 0  33.0441623263889 1.005859375  36.7978515625 3.017578125  C 40.5515407986111 5.029296875  43.5236545138889 7.7587890625  45.7141927083333 11.2060546875  Z " fill-rule="nonzero" fill="#999999" stroke="none" transform="matrix(1 0 0 1 729 80 )" />
  </g>
</svg>