<?xml version="1.0" encoding="utf-8"?>
<svg version="1.1" xmlns:xlink="http://www.w3.org/1999/xlink" width="14px" height="17px" xmlns="http://www.w3.org/2000/svg">
  <g transform="matrix(1 0 0 1 -913 -251 )">
    <path d="M 14 8.5  C 14 8.68279569892473  13.9144144144144 8.84098428453267  13.7432432432432 8.97456575682382  L 3.71621621621622 16.7996277915633  C 3.54504504504505 16.9332092638544  3.34234234234234 17  3.10810810810811 17  C 2.87387387387387 17  2.67117117117117 16.9332092638544  2.5 16.7996277915633  L 0.256756756756757 15.0490074441687  C 0.0855855855855857 14.9154259718776  0 14.7572373862696  0 14.5744416873449  C 0 14.3916459884202  0.0855855855855857 14.2334574028122  0.256756756756757 14.0998759305211  L 7.43243243243243 8.5  L 0.256756756756757 2.90012406947891  C 0.0855855855855857 2.76654259718776  0 2.60835401157982  0 2.42555831265509  C 0 2.24276261373035  0.0855855855855857 2.08457402812241  0.256756756756757 1.95099255583127  L 2.5 0.200372208436724  C 2.67117117117117 0.0667907361455741  2.87387387387387 0  3.10810810810811 0  C 3.34234234234234 0  3.54504504504505 0.0667907361455741  3.71621621621622 0.200372208436724  L 13.7432432432432 8.02543424317618  C 13.9144144144144 8.15901571546733  14 8.31720430107527  14 8.5  Z " fill-rule="nonzero" fill="#666666" stroke="none" transform="matrix(1 0 0 1 913 251 )" />
  </g>
</svg>