<?xml version="1.0" encoding="utf-8"?>
<svg version="1.1" xmlns:xlink="http://www.w3.org/1999/xlink" width="127px" height="125px" xmlns="http://www.w3.org/2000/svg">
  <g transform="matrix(1 0 0 1 -672 -214 )">
    <path d="M 40.927734375 100.830078125  C 47.8179253472222 104.790581597222  55.3420138888889 106.770833333333  63 106.770833333333  L 63 18.2291666666667  C 55.3420138888889 18.2291666666667  47.8179253472222 20.2094184027778  40.927734375 24.169921875  C 34.0375434027778 28.1304253472222  28.5805121527778 33.5015190972222  24.556640625 40.283203125  C 20.5327690972222 47.0648871527778  18.5208333333333 54.4704861111111  18.5208333333333 62.5  C 18.5208333333333 70.5295138888889  20.5327690972222 77.9351128472222  24.556640625 84.716796875  C 28.5805121527778 91.4984809027778  34.0375434027778 96.8695746527778  40.927734375 100.830078125  Z M 118.483723958333 31.1279296875  C 124.161241319444 40.7036675347222  127 51.1610243055555  127 62.5  C 127 73.8389756944444  124.161241319444 84.2963324652778  118.483723958333 93.8720703125  C 112.806206597222 103.447808159722  105.102973090278 111.029730902778  95.3740234375 116.617838541667  C 85.6450737847222 122.205946180556  75.0203993055556 125  63.5 125  C 51.9796006944445 125  41.3549262152778 122.205946180556  31.6259765625 116.617838541667  C 21.8970269097222 111.029730902778  14.1937934027778 103.447808159722  8.51627604166667 93.8720703125  C 2.83875868055556 84.2963324652778  0 73.8389756944444  0 62.5  C 0 51.1610243055555  2.83875868055556 40.7036675347222  8.51627604166667 31.1279296875  C 14.1937934027778 21.5521918402778  21.8970269097222 13.9702690972222  31.6259765625 8.38216145833333  C 41.3549262152778 2.79405381944443  51.9796006944445 0  63.5 0  C 75.0203993055556 0  85.6450737847222 2.79405381944443  95.3740234375 8.38216145833333  C 105.102973090278 13.9702690972222  112.806206597222 21.5521918402778  118.483723958333 31.1279296875  Z " fill-rule="nonzero" fill="#333333" stroke="none" fill-opacity="0.6" transform="matrix(1 0 0 1 672 214 )" />
  </g>
</svg>