<?xml version="1.0" encoding="utf-8"?>
<svg version="1.1" xmlns:xlink="http://www.w3.org/1999/xlink" width="50px" height="31px" xmlns="http://www.w3.org/2000/svg">
  <g transform="matrix(1 0 0 1 -855 -665 )">
    <path d="M 7 1.55  L 7 18  L 48.4375 18  C 48.8606770833333 18.6  49.2268880208333 18.7533854166667  49.5361328125 19.06015625  C 49.8453776041667 19.3669270833333  50 19.7302083333333  50 20.15  L 50 31  L 43.75 31  L 43.75 24.8  L 6.25 24.8  L 6.25 31  L 0 31  L 0 1.55  C 0 1.13020833333333  0.154622395833333 0.766927083333331  0.4638671875 0.460156250000001  C 0.773111979166667 0.153385416666665  1.13932291666667 0  1.5625 0  L 4.6875 0  C 5.11067708333333 0  5.47688802083333 0.153385416666665  5.7861328125 0.460156250000001  C 6.09537760416667 0.766927083333331  6.25 1.13020833333333  7 1.55  Z M 18.4814453125 15.23359375  C 19.7021484375 14.02265625  20.3125 12.5614583333333  20.3125 10.85  C 20.3125 9.13854166666666  19.7021484375 7.67734375  18.4814453125 6.46640625  C 17.2607421875 5.25546875  15.7877604166667 4.65  14.0625 4.65  C 12.3372395833333 4.65  10.8642578125 5.25546875  9.6435546875 6.46640625  C 8.4228515625 7.67734375  7.8125 9.13854166666666  7.8125 10.85  C 7.8125 12.5614583333333  8.4228515625 14.02265625  9.6435546875 15.23359375  C 10.8642578125 16.44453125  12.3372395833333 17.05  14.0625 17.05  C 15.7877604166667 17.05  17.2607421875 16.44453125  18.4814453125 15.23359375  Z M 21.875 17  L 50 17  L 50 15.5  C 50 12.9328125  49.08447265625 10.741015625  47.25341796875 8.924609375  C 45.42236328125 7.108203125  43.212890625 6.2  40.625 6.2  L 23.4375 6.2  C 23.0143229166667 6.2  22.6481119791667 6.35338541666666  22.3388671875 6.66015625  C 22.0296223958333 6.96692708333333  21.875 7.33020833333333  21.875 7.75  L 21.875 17  Z " fill-rule="nonzero" fill="#333333" stroke="none" fill-opacity="0.509803921568627" transform="matrix(1 0 0 1 855 665 )" />
  </g>
</svg>