<?xml version="1.0" encoding="utf-8"?>
<svg version="1.1" xmlns:xlink="http://www.w3.org/1999/xlink" width="44px" height="47px" xmlns="http://www.w3.org/2000/svg">
  <g transform="matrix(1 0 0 1 -858 -712 )">
    <path d="M 35.6662763466042 29.3520379676159  C 36.4476971116315 27.4888330541597  36.8384074941452 25.5337800111669  36.8384074941452 23.4868788386376  C 36.8384074941452 21.4399776661083  36.4476971116315 19.4849246231156  35.6662763466042 17.6217197096594  C 34.8848555815769 15.7585147962032  33.8286494925839 14.1489856690862  32.4976580796253 12.7931323283082  C 31.1666666666667 11.4372789875302  29.5866510538642 10.3613437558161  27.7576112412178 9.56532663316583  C 25.9285714285714 8.76930951051553  24.0093676814988 8.3713009491904  22 8.3713009491904  C 19.9906323185012 8.3713009491904  18.0714285714286 8.76930951051553  16.2423887587822 9.56532663316583  C 14.4133489461358 10.3613437558161  12.8333333333333 11.4372789875302  11.5023419203747 12.7931323283082  C 10.1713505074161 14.1489856690862  9.11514441842311 15.7585147962032  8.33372365339578 17.6217197096594  C 7.55230288836846 19.4849246231156  7.1615925058548 21.4399776661083  7.1615925058548 23.4868788386376  C 7.1615925058548 25.5337800111669  7.55230288836846 27.4888330541597  8.33372365339578 29.3520379676159  C 9.11514441842311 31.215242881072  10.1713505074161 32.8247720081891  11.5023419203747 34.1806253489671  C 12.8333333333333 35.536478689745  14.4133489461358 36.6124139214591  16.2423887587822 37.4084310441094  C 18.0714285714286 38.2044481667597  19.9906323185012 38.6024567280849  22 38.6024567280849  C 24.0093676814988 38.6024567280849  25.9285714285714 38.2044481667597  27.7576112412178 37.4084310441094  C 29.5866510538642 36.6124139214591  31.1666666666667 35.536478689745  32.4976580796253 34.1806253489671  C 33.8286494925839 32.8247720081891  34.8848555815769 31.215242881072  35.6662763466042 29.3520379676159  Z M 43.8454332552693 29.9949748743719  C 44 30.2049134561697  44.0343481654957 30.4585892425088  43.9484777517564 30.7560022333892  C 43.879781420765 31.0184254606365  43.7080405932865 31.1933742788014  43.4332552693208 31.2808486878839  L 35.9110070257611 33.8001116694584  L 35.9110070257611 41.8302624232272  C 35.9110070257611 42.1101805322911  35.7993754879001 42.3376139959055  35.576112412178 42.5125628140704  C 35.3185011709602 42.6875116322353  35.0694769711163 42.7225013958682  34.8290398126464 42.6175321049693  L 27.3067915690867 40.1507537688442  L 22.6697892271663 46.6588498045785  C 22.4980483996878 46.8862832681928  22.2747853239657 47  22 47  C 21.7252146760344 47  21.5019516003123 46.8862832681928  21.3302107728337 46.6588498045785  L 16.6932084309133 40.1507537688442  L 9.17096018735363 42.6175321049693  C 8.93052302888368 42.7225013958682  8.68149882903981 42.6875116322353  8.42388758782201 42.5125628140704  C 8.20062451209992 42.3376139959055  8.08899297423888 42.1101805322911  8.08899297423888 41.8302624232272  L 8.08899297423888 33.8001116694584  L 0.566744730679157 31.2808486878839  C 0.291959406713505 31.1933742788014  0.120218579234973 31.0184254606365  0.0515222482435597 30.7560022333892  C -0.0343481654957064 30.4585892425088  0 30.2049134561697  0.154566744730679 29.9949748743719  L 4.79156908665105 23.4868788386376  L 0.154566744730679 16.9787828029034  C 0 16.751349339289  -0.0343481654957064 16.4976735529499  0.0515222482435597 16.2177554438861  C 0.120218579234973 15.9553322166387  0.291959406713505 15.7803833984738  0.566744730679157 15.6929089893914  L 8.08899297423888 13.1736460078169  L 8.08899297423888 5.14349525404802  C 8.08899297423888 4.86357714498418  8.20062451209992 4.63614368136981  8.42388758782201 4.46119486320491  C 8.68149882903981 4.28624604504001  8.93052302888368 4.25125628140703  9.17096018735363 4.35622557230597  L 16.6932084309133 6.82300390843104  L 21.3302107728337 0.314907872696815  C 21.4847775175644 0.104969290898937  21.7080405932865 0  22 0  C 22.2919594067135 0  22.5152224824356 0.104969290898937  22.6697892271663 0.314907872696815  L 27.3067915690867 6.82300390843104  L 34.8290398126464 4.35622557230597  C 35.0694769711163 4.25125628140703  35.3185011709602 4.28624604504001  35.576112412178 4.46119486320491  C 35.7993754879001 4.63614368136981  35.9110070257611 4.86357714498418  35.9110070257611 5.14349525404802  L 35.9110070257611 13.1736460078169  L 43.4332552693208 15.6929089893914  C 43.7080405932865 15.7803833984738  43.879781420765 15.9553322166387  43.9484777517564 16.2177554438861  C 44.0343481654957 16.4976735529499  44 16.751349339289  43.8454332552693 16.9787828029034  L 39.2084309133489 23.4868788386376  L 43.8454332552693 29.9949748743719  Z " fill-rule="nonzero" fill="#333333" stroke="none" fill-opacity="0.498039215686275" transform="matrix(1 0 0 1 858 712 )" />
  </g>
</svg>