<?xml version="1.0" encoding="utf-8"?>
<svg version="1.1" xmlns:xlink="http://www.w3.org/1999/xlink" width="44px" height="43px" xmlns="http://www.w3.org/2000/svg">
  <g transform="matrix(1 0 0 1 -684 -712 )">
    <path d="M 42.5192307692308 15.4171392564587  C 43.5064102564103 15.5797101449275  44 15.9951690821256  44 16.6635160680529  C 44 17.0609115731989  43.7708333333333 17.4944339424491  43.3125 17.9640831758034  L 33.7139423076923 27.5557655954631  L 35.9879807692308 41.1033396345306  C 36.005608974359 41.2297836588952  36.0144230769231 41.4104179794161  36.0144230769231 41.6452425960933  C 36.0144230769231 42.0245746691871  35.921875 42.3452005881117  35.7367788461538 42.607120352867  C 35.5516826923077 42.8690401176223  35.2828525641026 43  34.9302884615385 43  C 34.5953525641026 43  34.2427884615385 42.8916194076875  33.8725961538462 42.6748582230624  L 22 36.2804032766226  L 10.1274038461538 42.6748582230624  C 9.73958333333333 42.8916194076875  9.38701923076923 43  9.06971153846154 43  C 8.69951923076923 43  8.421875 42.8690401176223  8.23677884615384 42.607120352867  C 8.05168269230769 42.3452005881117  7.95913461538462 42.0245746691871  7.95913461538462 41.6452425960933  C 7.95913461538462 41.5368620037807  7.97676282051282 41.3562276832598  8.01201923076923 41.1033396345306  L 10.2860576923077 27.5557655954631  L 0.661057692307692 17.9640831758034  C 0.220352564102564 17.476370510397  0 17.0428481411468  0 16.6635160680529  C 0 15.9951690821256  0.493589743589744 15.5797101449275  1.48076923076923 15.4171392564587  L 14.7548076923077 13.4391934467549  L 20.7043269230769 1.11090107120353  C 21.0392628205128 0.370300357067841  21.4711538461538 0  22 0  C 22.5288461538462 0  22.9607371794872 0.370300357067841  23.2956730769231 1.11090107120353  L 29.2451923076923 13.4391934467549  L 42.5192307692308 15.4171392564587  Z " fill-rule="nonzero" fill="#333333" stroke="none" fill-opacity="0.47843137254902" transform="matrix(1 0 0 1 684 712 )" />
  </g>
</svg>