<?xml version="1.0" encoding="utf-8"?>
<svg version="1.1" xmlns:xlink="http://www.w3.org/1999/xlink" width="47px" height="34px" xmlns="http://www.w3.org/2000/svg">
  <g transform="matrix(1 0 0 1 -681 -661 )">
    <path d="M 9 17  L 15 17  L 15 28.3333333333333  L 9 28.3333333333333  L 9 17  Z M 18 5.66666666666667  L 23 5.66666666666667  L 23 28.3333333333333  L 18 28.3333333333333  L 18 5.66666666666667  Z M 3 31  L 47 31  L 47 34  L 0 34  L 0 0  L 3 0  L 3 31  Z M 26 11.3333333333333  L 32 11.3333333333333  L 32 28.3333333333333  L 26 28.3333333333333  L 26 11.3333333333333  Z M 35 2.83333333333333  L 41 2.83333333333333  L 41 28.3333333333333  L 35 28.3333333333333  L 35 2.83333333333333  Z " fill-rule="nonzero" fill="#333333" stroke="none" fill-opacity="0.498039215686275" transform="matrix(1 0 0 1 681 661 )" />
  </g>
</svg>