<?xml version="1.0" encoding="utf-8"?>
<svg version="1.1" xmlns:xlink="http://www.w3.org/1999/xlink" width="283px" height="187px" xmlns="http://www.w3.org/2000/svg">
  <g transform="matrix(1 0 0 1 -1344 -217 )">
    <path d="M 53 93  L 89 93  L 89 155  L 53 155  L 53 93  Z M 107 32  L 141 32  L 141 155  L 107 155  L 107 32  Z M 18 171  L 283 171  L 283 187  L 0 187  L 0 0  L 18 0  L 18 171  Z M 159 63  L 194 63  L 194 155  L 159 155  L 159 63  Z M 212 16  L 247 16  L 247 155  L 212 155  L 212 16  Z " fill-rule="nonzero" fill="#999999" stroke="none" transform="matrix(1 0 0 1 1344 217 )" />
  </g>
</svg>