<?xml version="1.0" encoding="utf-8"?>
<svg version="1.1" xmlns:xlink="http://www.w3.org/1999/xlink" width="47px" height="42px" xmlns="http://www.w3.org/2000/svg">
  <g transform="matrix(1 0 0 1 -208 -765 )">
    <path d="M 27.1412760416667 10.74609375  C 27.3248697916667 10.91015625  27.4166666666667 11.1197916666667  27 11.375  L 27 23.625  C 27.4166666666667 23.8802083333333  27.3248697916667 24.08984375  27.1412760416667 24.25390625  C 26.9576822916667 24.41796875  26.7230902777778 24.5  26.4375 24.5  L 16.6458333333333 24.5  C 16.3602430555556 24.5  16.1256510416667 24.41796875  15.9420572916667 24.25390625  C 15.7584635416667 24.08984375  15.6666666666667 23.8802083333333  15.6666666666667 23.625  L 15.6666666666667 21.875  C 15.6666666666667 21.6197916666667  15.7584635416667 21.41015625  15.9420572916667 21.24609375  C 16.1256510416667 21.08203125  16.3602430555556 21  16.6458333333333 21  L 23.5 21  L 23.5 11.375  C 23.5 11.1197916666667  23.591796875 10.91015625  23.775390625 10.74609375  C 23.958984375 10.58203125  24.1935763888889 10.5  24.4791666666667 10.5  L 26.4375 10.5  C 26.7230902777778 10.5  26.9576822916667 10.58203125  27.1412760416667 10.74609375  Z M 37.912109375 28.46484375  C 39.4012586805556 26.1861979166667  40.1458333333333 23.6979166666667  40.1458333333333 21  C 40.1458333333333 18.3020833333333  39.4012586805556 15.8138020833333  37.912109375 13.53515625  C 36.4229600694445 11.2565104166667  34.4034288194445 9.45182291666666  31.853515625 8.12109375  C 29.3036024305556 6.79036458333333  26.5190972222222 6.125  23.5 6.125  C 20.4809027777778 6.125  17.6963975694444 6.79036458333333  15.146484375 8.12109375  C 12.5965711805556 9.45182291666666  10.5770399305556 11.2565104166667  9.087890625 13.53515625  C 7.59874131944445 15.8138020833333  6.85416666666667 18.3020833333333  6.85416666666667 21  C 6.85416666666667 23.6979166666667  7.59874131944445 26.1861979166667  9.087890625 28.46484375  C 10.5770399305556 30.7434895833333  12.5965711805556 32.5481770833333  15.146484375 33.87890625  C 17.6963975694444 35.2096354166667  20.4809027777778 35.875  23.5 35.875  C 26.5190972222222 35.875  29.3036024305556 35.2096354166667  31.853515625 33.87890625  C 34.4034288194445 32.5481770833333  36.4229600694445 30.7434895833333  37.912109375 28.46484375  Z M 43.8483072916667 10.458984375  C 45.9494357638889 13.6764322916667  47 17.1901041666667  47 21  C 47 24.8098958333333  45.9494357638889 28.3235677083333  43.8483072916667 31.541015625  C 41.7471788194445 34.7584635416667  38.8963758680556 37.3059895833333  35.2958984375 39.18359375  C 31.6954210069445 41.0611979166667  27.7634548611111 42  23.5 42  C 19.2365451388889 42  15.3045789930556 41.0611979166667  11.7041015625 39.18359375  C 8.10362413194444 37.3059895833333  5.25282118055556 34.7584635416667  3.15169270833333 31.541015625  C 1.05056423611111 28.3235677083333  0 24.8098958333333  0 21  C 0 17.1901041666667  1.05056423611111 13.6764322916667  3.15169270833333 10.458984375  C 5.25282118055556 7.24153645833333  8.10362413194444 4.69401041666666  11.7041015625 2.81640625  C 15.3045789930556 0.93880208333333  19.2365451388889 0  23.5 0  C 27.7634548611111 0  31.6954210069445 0.93880208333333  35.2958984375 2.81640625  C 38.8963758680556 4.69401041666666  41.7471788194445 7.24153645833333  43.8483072916667 10.458984375  Z " fill-rule="nonzero" fill="#999999" stroke="none" transform="matrix(1 0 0 1 208 765 )" />
  </g>
</svg>