<?xml version="1.0" encoding="utf-8"?>
<svg version="1.1" xmlns:xlink="http://www.w3.org/1999/xlink" width="52px" height="52px" xmlns="http://www.w3.org/2000/svg">
  <g transform="matrix(1 0 0 1 -71 -759 )">
    <path d="M 36.8171312032631 45.5846354166667  C 39.8690233401314 44.1966145833333  42.4672558350329 42.2612847222222  44.6118286879674 39.7786458333333  C 43.3392250169952 39.9817708333333  42.0430546113755 40.0833333333333  40.7233174711081 40.0833333333333  C 36.4341717652391 40.0833333333333  32.4631769771131 39.0677083333333  28.8103331067301 37.0364583333333  C 25.1574892363472 35.0052083333333  22.2705642420122 32.2404513888889  20.1495581237254 28.7421875  C 18.0285520054385 25.2439236111111  16.968048946295 21.4409722222222  16.968048946295 17.3333333333333  C 16.968048946295 13  18.1935191479719 8.97135416666666  20.6444595513256 5.24739583333334  C 15.9075458871516 6.6015625  12.036709721278 9.18576388888888  9.03195105370496 13  C 6.02719238613188 16.8142361111111  4.52481305234534 21.1475694444444  4.52481305234534 26  C 4.52481305234534 28.9340277777778  5.12576478585996 31.73828125  6.32766825288919 34.4127604166667  C 7.52957171991842 37.0872395833333  9.13800135961931 39.3893229166667  11.1529571719918 41.3190104166667  C 13.1679129843644 43.2486979166667  15.5717199184228 44.7890625  18.3643779741672 45.9401041666667  C 21.1570360299116 47.0911458333333  24.0852028098799 47.6666666666667  27.1488783140721 47.6666666666667  C 30.5424881033311 47.6666666666667  33.7652390663947 46.97265625  36.8171312032631 45.5846354166667  Z M 51.9469748470428 35.6145833333333  C 52.0294584183095 36.0659722222222  51.9764332653524 36.4947916666667  51.7878993881713 36.9010416666667  C 49.5726263312939 41.4826388888889  46.2320416949921 45.14453125  41.7661454792658 47.88671875  C 37.3002492635395 50.62890625  32.4278268751416 52  27.1488783140721 52  C 23.4724677090415 52  19.9610242465443 51.3116319444444  16.6145479265806 49.9348958333333  C 13.2680716066168 48.5581597222222  10.3811466122819 46.7074652777778  7.9537729435758 44.3828125  C 5.5263992748697 42.0581597222222  3.59392703376388 39.2934027777778  2.15635622025833 36.0885416666667  C 0.718785406752776 32.8836805555556  0 29.5208333333333  0 26  C 0 22.546875  0.67754362111942 19.24609375  2.03263086335826 16.09765625  C 3.3877181055971 12.94921875  5.22592340811239 10.2239583333333  7.54724677090415 7.921875  C 9.8685701336959 5.61979166666666  12.6435531384546 3.7634548611111  15.8721957851801 2.35286458333334  C 19.1008384319057 0.942274305555555  22.5180149558124 0.169270833333335  26.1237253569001 0.0338541666666647  C 27.1606616813959 -0.0112847222222312  27.8794470881487 0.428819444444439  28.2800815771584 1.35416666666666  C 28.7042828008158 2.27951388888888  28.5275322909585 3.09201388888888  27.7498300475867 3.79166666666666  C 25.7230908678903 5.55208333333334  24.1735780648085 7.60026041666666  23.1012916383413 9.93619791666666  C 22.029005211874 12.2721354166667  21.4928619986404 14.7378472222222  21.4928619986404 17.3333333333333  C 21.4928619986404 20.6736111111111  22.3530478132789 23.7543402777778  24.0734194425561 26.5755208333333  C 25.7937910718332 29.3967013888889  28.1268978019488 31.6310763888889  31.0727396329028 33.2786458333333  C 34.0185814638568 34.9262152777778  37.2354407432586 35.75  40.7233174711081 35.75  C 43.5041921595287 35.75  46.1907999093587 35.1744791666667  48.7831407205982 34.0234375  C 49.7493768411512 33.6171875  50.5977792884659 33.7638888888889  51.3283480625425 34.4635416666667  C 51.6582823476093 34.7795138888889  51.8644912757761 35.1631944444444  51.9469748470428 35.6145833333333  Z " fill-rule="nonzero" fill="#000000" stroke="none" transform="matrix(1 0 0 1 71 759 )" />
  </g>
</svg>