<?xml version="1.0" encoding="utf-8"?>
<svg version="1.1" xmlns:xlink="http://www.w3.org/1999/xlink" width="44px" height="37px" xmlns="http://www.w3.org/2000/svg">
  <g transform="matrix(1 0 0 1 -353 -674 )">
    <path d="M 43.5591182364729 32.9399585921325  C 43.8530394121576 33.1953071083506  44 33.4889579020014  44 33.8209109730849  C 44 34.1528640441684  43.8530394121576 34.4465148378192  43.5591182364729 34.7018633540373  L 41.3547094188377 36.6169772256729  C 41.060788243153 36.872325741891  40.7227788911156 37  40.3406813627254 37  C 39.9585838343353 37  39.6205744822979 36.872325741891  39.3266533066132 36.6169772256729  L 22 21.564182194617  L 4.67334669338677 36.6169772256729  C 4.37942551770207 36.872325741891  4.04141616566466 37  3.65931863727455 37  C 3.27722110888444 37  2.93921175684703 36.872325741891  2.64529058116232 36.6169772256729  L 0.440881763527054 34.7018633540373  C 0.146960587842352 34.4465148378192  0 34.1528640441684  0 33.8209109730849  C 0 33.4889579020014  0.146960587842352 33.1953071083506  0.440881763527054 32.9399585921325  L 20.9859719438878 15.0910973084886  C 21.2798931195725 14.8357487922705  21.6179024716099 14.7080745341615  22 14.7080745341615  C 22.3820975283901 14.7080745341615  22.7201068804275 14.8357487922705  23.0140280561122 15.0910973084886  L 43.5591182364729 32.9399585921325  Z M 43.5591182364729 18.231884057971  C 43.8530394121576 18.4872325741891  44 18.7808833678399  44 19.1128364389234  C 44 19.4447895100069  43.8530394121576 19.7384403036577  43.5591182364729 19.9937888198758  L 41.3547094188377 21.9089026915114  C 41.060788243153 22.1642512077295  40.7227788911156 22.2919254658385  40.3406813627254 22.2919254658385  C 39.9585838343353 22.2919254658385  39.6205744822979 22.1642512077295  39.3266533066132 21.9089026915114  L 22 6.85610766045549  L 4.67334669338677 21.9089026915114  C 4.37942551770207 22.1642512077295  4.04141616566466 22.2919254658385  3.65931863727455 22.2919254658385  C 3.27722110888444 22.2919254658385  2.93921175684703 22.1642512077295  2.64529058116232 21.9089026915114  L 0.440881763527054 19.9937888198758  C 0.146960587842352 19.7384403036577  0 19.4447895100069  0 19.1128364389234  C 0 18.7808833678399  0.146960587842352 18.4872325741891  0.440881763527054 18.231884057971  L 20.9859719438878 0.383022774327122  C 21.2798931195725 0.127674258109038  21.6179024716099 0  22 0  C 22.3820975283901 0  22.7201068804275 0.127674258109038  23.0140280561122 0.383022774327122  L 43.5591182364729 18.231884057971  Z " fill-rule="nonzero" fill="#7f7f7f" stroke="none" transform="matrix(1 0 0 1 353 674 )" />
  </g>
</svg>