<?xml version="1.0" encoding="utf-8"?>
<svg version="1.1" xmlns:xlink="http://www.w3.org/1999/xlink" width="54px" height="51px" xmlns="http://www.w3.org/2000/svg">
  <g transform="matrix(1 0 0 1 -310 -751 )">
    <path d="M 33.36328125 31.509765625  C 35.12109375 29.849609375  36 27.8463541666667  36 25.5  C 36 23.1536458333333  35.12109375 21.150390625  33.36328125 19.490234375  C 31.60546875 17.830078125  29.484375 17  27 17  C 24.515625 17  22.39453125 17.830078125  20.63671875 19.490234375  C 18.87890625 21.150390625  18 23.1536458333333  18 25.5  C 18 27.8463541666667  18.87890625 29.849609375  20.63671875 31.509765625  C 22.39453125 33.169921875  24.515625 34  27 34  C 29.484375 34  31.60546875 33.169921875  33.36328125 31.509765625  Z M 53.71875 21.1005859375  C 53.90625 21.3330078125  54 21.5930989583333  54 21.880859375  L 54 29.251953125  C 54 29.517578125  53.90625 29.7721354166667  53.71875 30.015625  C 53.53125 30.2591145833333  53.296875 30.4029947916667  53.015625 30.447265625  L 46.51171875 31.376953125  C 46.06640625 32.572265625  45.609375 33.5794270833333  45.140625 34.3984375  C 45.9609375 35.5052083333333  47.21484375 37.0325520833333  48.90234375 38.98046875  C 49.13671875 39.24609375  49.25390625 39.5227864583333  49.25390625 39.810546875  C 49.25390625 40.0983072916667  49.1484375 40.3528645833333  48.9375 40.57421875  C 48.3046875 41.3932291666667  47.14453125 42.5885416666667  45.45703125 44.16015625  C 43.76953125 45.7317708333333  42.66796875 46.517578125  42.15234375 46.517578125  C 41.87109375 46.517578125  41.56640625 46.41796875  41.23828125 46.21875  L 36.38671875 42.6328125  C 35.35546875 43.1419270833333  34.2890625 43.5625  33.1875 43.89453125  C 32.8125 46.9049479166667  32.47265625 48.9635416666667  32.16796875 50.0703125  C 32.00390625 50.6901041666667  31.58203125 51  30.90234375 51  L 23.09765625 51  C 22.76953125 51  22.482421875 50.9059244791667  22.236328125 50.7177734375  C 21.990234375 50.5296223958333  21.85546875 50.2916666666667  21.83203125 50.00390625  L 20.84765625 43.89453125  C 19.69921875 43.5403645833333  18.64453125 43.130859375  17.68359375 42.666015625  L 12.7265625 46.21875  C 12.4921875 46.41796875  12.19921875 46.517578125  11.84765625 46.517578125  C 11.51953125 46.517578125  11.2265625 46.3958333333333  10.96875 46.15234375  C 8.015625 43.62890625  6.08203125 41.76953125  5.16796875 40.57421875  C 5.00390625 40.3528645833333  4.921875 40.0983072916667  4.921875 39.810546875  C 4.921875 39.544921875  5.015625 39.2903645833333  5.203125 39.046875  C 5.5546875 38.58203125  6.15234375 37.8460286458333  6.99609375 36.8388671875  C 7.83984375 35.8317057291667  8.47265625 35.0514322916667  8.89453125 34.498046875  C 8.26171875 33.3912760416667  7.78125 32.2955729166667  7.453125 31.2109375  L 1.01953125 30.314453125  C 0.71484375 30.2701822916667  0.46875 30.1318359375  0.28125 29.8994140625  C 0.09375 29.6669921875  0 29.4069010416667  0 29.119140625  L 0 21.748046875  C 0 21.482421875  0.09375 21.2278645833333  0.28125 20.984375  C 0.46875 20.7408854166667  0.69140625 20.5970052083333  0.94921875 20.552734375  L 7.48828125 19.623046875  C 7.81640625 18.6048177083333  8.2734375 17.5865885416667  8.859375 16.568359375  C 7.921875 15.306640625  6.66796875 13.779296875  5.09765625 11.986328125  C 4.86328125 11.720703125  4.74609375 11.455078125  4.74609375 11.189453125  C 4.74609375 10.9680989583333  4.8515625 10.7135416666667  5.0625 10.42578125  C 5.671875 9.62890625  6.826171875 8.43912760416666  8.525390625 6.8564453125  C 10.224609375 5.27376302083333  11.33203125 4.482421875  11.84765625 4.482421875  C 12.15234375 4.482421875  12.45703125 4.59309895833333  12.76171875 4.814453125  L 17.61328125 8.3671875  C 18.64453125 7.85807291666666  19.7109375 7.4375  20.8125 7.10546875  C 21.1875 4.09505208333333  21.52734375 2.03645833333333  21.83203125 0.929687499999998  C 21.99609375 0.309895833333331  22.41796875 0  23.09765625 0  L 30.90234375 0  C 31.23046875 0  31.517578125 0.0940755208333289  31.763671875 0.282226562499998  C 32.009765625 0.470377604166662  32.14453125 0.708333333333331  32.16796875 0.99609375  L 33.15234375 7.10546875  C 34.30078125 7.45963541666666  35.35546875 7.869140625  36.31640625 8.333984375  L 41.30859375 4.78125  C 41.51953125 4.58203125  41.80078125 4.482421875  42.15234375 4.482421875  C 42.45703125 4.482421875  42.75 4.59309895833333  43.03125 4.814453125  C 46.0546875 7.44856770833333  47.98828125 9.330078125  48.83203125 10.458984375  C 48.99609375 10.6360677083333  49.078125 10.8795572916667  49.078125 11.189453125  C 49.078125 11.455078125  48.984375 11.7096354166667  48.796875 11.953125  C 48.4453125 12.41796875  47.84765625 13.1539713541667  47.00390625 14.1611328125  C 46.16015625 15.1682942708333  45.52734375 15.9485677083333  45.10546875 16.501953125  C 45.71484375 17.6087239583333  46.1953125 18.693359375  46.546875 19.755859375  L 52.98046875 20.685546875  C 53.28515625 20.7298177083333  53.53125 20.8681640625  53.71875 21.1005859375  Z " fill-rule="nonzero" fill="#333333" stroke="none" transform="matrix(1 0 0 1 310 751 )" />
  </g>
</svg>