<?xml version="1.0" encoding="utf-8"?>
<svg version="1.1" xmlns:xlink="http://www.w3.org/1999/xlink" width="47px" height="45px" xmlns="http://www.w3.org/2000/svg">
  <g transform="matrix(1 0 0 1 -194 -762 )">
    <path d="M 27.1412760416667 11.513671875  C 27.3248697916667 11.689453125  27.4166666666667 11.9140625  27 12.1875  L 27 25.3125  C 27.4166666666667 25.5859375  27.3248697916667 25.810546875  27.1412760416667 25.986328125  C 26.9576822916667 26.162109375  26.7230902777778 26.25  26.4375 26.25  L 16.6458333333333 26.25  C 16.3602430555556 26.25  16.1256510416667 26.162109375  15.9420572916667 25.986328125  C 15.7584635416667 25.810546875  15.6666666666667 25.5859375  15.6666666666667 25.3125  L 15.6666666666667 23.4375  C 15.6666666666667 23.1640625  15.7584635416667 22.939453125  15.9420572916667 22.763671875  C 16.1256510416667 22.587890625  16.3602430555556 22.5  16.6458333333333 22.5  L 23 22.5  L 23 12.1875  C 23.5 11.9140625  23.591796875 11.689453125  23.775390625 11.513671875  C 23.958984375 11.337890625  24.1935763888889 11.25  24.4791666666667 11.25  L 26.4375 11.25  C 26.7230902777778 11.25  26.9576822916667 11.337890625  27.1412760416667 11.513671875  Z M 37.912109375 30.498046875  C 39.4012586805556 28.056640625  40.1458333333333 25.390625  40.1458333333333 22.5  C 40.1458333333333 19.609375  39.4012586805556 16.943359375  37.912109375 14.501953125  C 36.4229600694445 12.060546875  34.4034288194445 10.126953125  31.853515625 8.701171875  C 29.3036024305556 7.275390625  26.5190972222222 6.5625  23.5 6.5625  C 20.4809027777778 6.5625  17.6963975694444 7.275390625  15.146484375 8.701171875  C 12.5965711805556 10.126953125  10.5770399305556 12.060546875  9.087890625 14.501953125  C 7.59874131944445 16.943359375  6.85416666666667 19.609375  6.85416666666667 22.5  C 6.85416666666667 25.390625  7.59874131944445 28.056640625  9.087890625 30.498046875  C 10.5770399305556 32.939453125  12.5965711805556 34.873046875  15.146484375 36.298828125  C 17.6963975694444 37.724609375  20.4809027777778 38.4375  23.5 38.4375  C 26.5190972222222 38.4375  29.3036024305556 37.724609375  31.853515625 36.298828125  C 34.4034288194445 34.873046875  36.4229600694445 32.939453125  37.912109375 30.498046875  Z M 43.8483072916667 11.2060546875  C 45.9494357638889 14.6533203125  47 18.41796875  47 22.5  C 47 26.58203125  45.9494357638889 30.3466796875  43.8483072916667 33.7939453125  C 41.7471788194445 37.2412109375  38.8963758680556 39.970703125  35.2958984375 41.982421875  C 31.6954210069445 43.994140625  27.7634548611111 45  23.5 45  C 19.2365451388889 45  15.3045789930556 43.994140625  11.7041015625 41.982421875  C 8.10362413194444 39.970703125  5.25282118055556 37.2412109375  3.15169270833333 33.7939453125  C 1.05056423611111 30.3466796875  0 26.58203125  0 22.5  C 0 18.41796875  1.05056423611111 14.6533203125  3.15169270833333 11.2060546875  C 5.25282118055556 7.7587890625  8.10362413194444 5.029296875  11.7041015625 3.017578125  C 15.3045789930556 1.005859375  19.2365451388889 0  23.5 0  C 27.7634548611111 0  31.6954210069445 1.005859375  35.2958984375 3.017578125  C 38.8963758680556 5.029296875  41.7471788194445 7.7587890625  43.8483072916667 11.2060546875  Z " fill-rule="nonzero" fill="#999999" stroke="none" transform="matrix(1 0 0 1 194 762 )" />
  </g>
</svg>