<?xml version="1.0" encoding="utf-8"?>
<svg version="1.1" xmlns:xlink="http://www.w3.org/1999/xlink" width="17px" height="29px" xmlns="http://www.w3.org/2000/svg">
  <g transform="matrix(1 0 0 1 -298 -228 )">
    <path d="M 16.7079037800687 13.8316633266533  C 16.9026345933562 14.0253841015364  17 14.248162992652  17 14.5  C 17 14.751837007348  16.9026345933562 14.9746158984636  16.7079037800687 15.1683366733467  L 3.09621993127148 28.7094188376754  C 2.90148911798396 28.9031396125585  2.67754868270332 29  2.42439862542955 29  C 2.17124856815578 29  1.94730813287514 28.9031396125585  1.75257731958763 28.7094188376754  L 0.292096219931271 27.2565130260521  C 0.0973654066437572 27.062792251169  0 26.8400133600534  0 26.5881763527054  C 0 26.3363393453574  0.0973654066437572 26.1135604542418  0.292096219931271 25.9198396793587  L 11.7714776632302 14.5  L 0.292096219931271 3.08016032064128  C 0.0973654066437572 2.88643954575818  0 2.66366065464262  0 2.41182364729459  C 0 2.15998663994656  0.0973654066437572 1.93720774883099  0.292096219931271 1.74348697394789  L 1.75257731958763 0.29058116232465  C 1.94730813287514 0.0968603874415488  2.17124856815578 0  2.42439862542955 0  C 2.67754868270332 0  2.90148911798396 0.0968603874415488  3.09621993127148 0.29058116232465  L 16.7079037800687 13.8316633266533  Z " fill-rule="nonzero" fill="#999999" stroke="none" transform="matrix(1 0 0 1 298 228 )" />
  </g>
</svg>