<?xml version="1.0" encoding="utf-8"?>
<svg version="1.1" xmlns:xlink="http://www.w3.org/1999/xlink" width="56px" height="53px" xmlns="http://www.w3.org/2000/svg">
  <g transform="matrix(1 0 0 1 -194 -754 )">
    <path d="M 32.3385416666667 13.560546875  C 32.5572916666667 13.767578125  32.6666666666667 14.0321180555555  32 14.3541666666667  L 32 29.8125  C 32.6666666666667 30.1345486111111  32.5572916666667 30.3990885416667  32.3385416666667 30.6061197916667  C 32.1197916666667 30.8131510416667  31.8402777777778 30.9166666666667  31.5 31  L 19.8333333333333 31  C 19.4930555555556 30.9166666666667  19.2135416666667 30.8131510416667  18.9947916666667 30.6061197916667  C 18.7760416666667 30.3990885416667  18.6666666666667 30.1345486111111  18.6666666666667 29.8125  L 18.6666666666667 27.6041666666667  C 18.6666666666667 27.2821180555556  18.7760416666667 27.017578125  18.9947916666667 26.810546875  C 19.2135416666667 26.603515625  19.4930555555556 26.5  19.8333333333333 26.5  L 28 26.5  L 28 14.3541666666667  C 28 14.0321180555555  28.109375 13.767578125  28.328125 13.560546875  C 28.546875 13.353515625  28.8263888888889 13.25  29.1666666666667 13.25  L 31.5 13.25  C 31.8402777777778 13.25  32.1197916666667 13.353515625  32.3385416666667 13.560546875  Z M 45.171875 35.919921875  C 46.9461805555556 33.0444878472222  47.8333333333333 29.9045138888889  47.8333333333333 26.5  C 47.8333333333333 23.0954861111111  46.9461805555556 19.9555121527778  45.171875 17.080078125  C 43.3975694444445 14.2046440972222  40.9913194444445 11.9273003472222  37.953125 10.248046875  C 34.9149305555556 8.56879340277778  31.5972222222222 7.72916666666667  28 7.72916666666667  C 24.4027777777778 7.72916666666667  21.0850694444444 8.56879340277778  18.046875 10.248046875  C 15.0086805555556 11.9273003472222  12.6024305555556 14.2046440972222  10.828125 17.080078125  C 9.05381944444444 19.9555121527778  8.16666666666667 23.0954861111111  8.16666666666667 26.5  C 8.16666666666667 29.9045138888889  9.05381944444444 33.0444878472222  10.828125 35.919921875  C 12.6024305555556 38.7953559027778  15.0086805555556 41.0726996527778  18.046875 42.751953125  C 21.0850694444444 44.4312065972222  24.4027777777778 45.2708333333333  28 45.2708333333333  C 31.5972222222222 45.2708333333333  34.9149305555556 44.4312065972222  37.953125 42.751953125  C 40.9913194444445 41.0726996527778  43.3975694444445 38.7953559027778  45.171875 35.919921875  Z M 52.2447916666667 13.1982421875  C 54.7482638888889 17.2583550347222  56 21.6922743055556  56 26.5  C 56 31.3077256944444  54.7482638888889 35.7416449652778  52.2447916666667 39.8017578125  C 49.7413194444445 43.8618706597222  46.3446180555556 47.0766059027778  42.0546875 49.4459635416667  C 37.7647569444445 51.8153211805556  33.0798611111111 53  28 53  C 22.9201388888889 53  18.2352430555556 51.8153211805556  13.9453125 49.4459635416667  C 9.65538194444444 47.0766059027778  6.25868055555556 43.8618706597222  3.75520833333333 39.8017578125  C 1.25173611111111 35.7416449652778  0 31.3077256944444  0 26.5  C 0 21.6922743055556  1.25173611111111 17.2583550347222  3.75520833333333 13.1982421875  C 6.25868055555556 9.13812934027778  9.65538194444444 5.92339409722222  13.9453125 3.55403645833333  C 18.2352430555556 1.18467881944444  22.9201388888889 0  28 0  C 33.0798611111111 0  37.7647569444445 1.18467881944444  42.0546875 3.55403645833333  C 46.3446180555556 5.92339409722222  49.7413194444445 9.13812934027778  52.2447916666667 13.1982421875  Z " fill-rule="nonzero" fill="#333333" stroke="none" transform="matrix(1 0 0 1 194 754 )" />
  </g>
</svg>