<?xml version="1.0" encoding="utf-8"?>
<svg version="1.1" xmlns:xlink="http://www.w3.org/1999/xlink" width="10px" height="30px" xmlns="http://www.w3.org/2000/svg">
  <g transform="matrix(1 0 0 1 -330 -183 )">
    <path d="M 9.27083333333333 22.4147727272727  C 9.75694444444444 22.8125  10 23.2954545454545  10 23.8636363636364  L 10 27.9545454545455  C 10 28.5227272727273  9.75694444444444 29.0056818181818  9.27083333333333 29.4034090909091  C 8.78472222222222 29.8011363636364  8.19444444444444 30  7.5 30  L 2.5 30  C 1.80555555555556 30  1.21527777777778 29.8011363636364  0.729166666666667 29.4034090909091  C 0.243055555555556 29.0056818181818  0 28.5227272727273  0 27.9545454545455  L 0 23.8636363636364  C 0 23.2954545454545  0.243055555555556 22.8125  0.729166666666667 22.4147727272727  C 1.21527777777778 22.0170454545455  1.80555555555556 21.8181818181818  2.5 21.8181818181818  L 7.5 21.8181818181818  C 8.19444444444444 21.8181818181818  8.78472222222222 22.0170454545455  9.27083333333333 22.4147727272727  Z M 9.27083333333333 11.5056818181818  C 9.75694444444444 11.9034090909091  10 12.3863636363636  10 12.9545454545455  L 10 17.0454545454545  C 10 17.6136363636364  9.75694444444444 18.0965909090909  9.27083333333333 18.4943181818182  C 8.78472222222222 18.8920454545455  8.19444444444444 19.0909090909091  7.5 19.0909090909091  L 2.5 19.0909090909091  C 1.80555555555556 19.0909090909091  1.21527777777778 18.8920454545455  0.729166666666667 18.4943181818182  C 0.243055555555556 18.0965909090909  0 17.6136363636364  0 17.0454545454545  L 0 12.9545454545455  C 0 12.3863636363636  0.243055555555556 11.9034090909091  0.729166666666667 11.5056818181818  C 1.21527777777778 11.1079545454545  1.80555555555556 10.9090909090909  2.5 10.9090909090909  L 7.5 10.9090909090909  C 8.19444444444444 10.9090909090909  8.78472222222222 11.1079545454545  9.27083333333333 11.5056818181818  Z M 9.27083333333333 0.596590909090909  C 9.75694444444444 0.99431818181818  10 1.47727272727273  10 2.04545454545455  L 10 6.13636363636364  C 10 6.70454545454545  9.75694444444444 7.1875  9.27083333333333 7.58522727272727  C 8.78472222222222 7.98295454545454  8.19444444444444 8.18181818181818  7.5 8.18181818181818  L 2.5 8.18181818181818  C 1.80555555555556 8.18181818181818  1.21527777777778 7.98295454545454  0.729166666666667 7.58522727272727  C 0.243055555555556 7.1875  0 6.70454545454545  0 6.13636363636364  L 0 2.04545454545455  C 0 1.47727272727273  0.243055555555556 0.99431818181818  0.729166666666667 0.596590909090909  C 1.21527777777778 0.198863636363635  1.80555555555556 0  2.5 0  L 7.5 0  C 8.19444444444444 0  8.78472222222222 0.198863636363635  9.27083333333333 0.596590909090909  Z " fill-rule="nonzero" fill="#cccccc" stroke="none" transform="matrix(1 0 0 1 330 183 )" />
  </g>
</svg>