<?xml version="1.0" encoding="utf-8"?>
<svg version="1.1" xmlns:xlink="http://www.w3.org/1999/xlink" width="45px" height="45px" xmlns="http://www.w3.org/2000/svg">
  <g transform="matrix(1 0 0 1 -72 -762 )">
    <path d="M 31.8609789259007 39.4482421875  C 34.5020394289599 38.2470703125  36.75050985724 36.572265625  38.606390210741 34.423828125  C 37.5050985723997 34.599609375  36.3834126444596 34.6875  35.2413324269205 34.6875  C 31.5295717199184 34.6875  28.0931339225017 33.80859375  24.9320190346703 32.05078125  C 21.7709041468389 30.29296875  19.2726036709721 27.900390625  17.43711760707 24.873046875  C 15.6016315431679 21.845703125  14.6838885112169 18.5546875  14.6838885112169 15  C 14.6838885112169 11.25  15.7443915703603 7.763671875  17.8653976886472 4.541015625  C 13.7661454792658 5.712890625  10.4163834126445 7.94921875  7.81611148878314 11.25  C 5.21583956492182 14.55078125  3.91570360299116 18.30078125  3.91570360299116 22.5  C 3.91570360299116 25.0390625  4.43575798776343 27.4658203125  5.47586675730795 29.7802734375  C 6.51597552685248 32.0947265625  7.90788579197825 34.0869140625  9.65159755268525 35.7568359375  C 11.3953093133923 37.4267578125  13.4755268524813 38.759765625  15.8922501699524 39.755859375  C 18.3089734874235 40.751953125  20.8429639700884 41.25  23.494221617947 41.25  C 26.4309993201903 41.25  29.2199184228416 40.6494140625  31.8609789259007 39.4482421875  Z M 44.9541128484024 30.8203125  C 45.0254928619987 31.2109375  44.9796057104011 31.58203125  44.8164513936098 31.93359375  C 42.899388171312 35.8984375  40.0084976206662 39.0673828125  36.1437797416723 41.4404296875  C 32.2790618626785 43.8134765625  28.0625424881033 45  23.494221617947 45  C 20.3127124405167 45  17.2739632902787 44.404296875  14.3779741672332 43.212890625  C 11.4819850441876 42.021484375  8.98368456832087 40.419921875  6.8830727396329 38.408203125  C 4.78246091094494 36.396484375  3.11012916383413 34.00390625  1.86607749830048 31.23046875  C 0.622025832766825 28.45703125  0 25.546875  0 22.5  C 0 19.51171875  0.586335825968729 16.6552734375  1.75900747790619 13.9306640625  C 2.93167912984364 11.2060546875  4.5224337185588 8.84765625  6.53127124405167 6.85546875  C 8.54010876954453 4.86328125  10.9415363698165 3.25683593749999  13.7355540448674 2.0361328125  C 16.5295717199184 0.815429687499999  19.4867437117607 0.146484375000002  22.6070700203943 0.0292968749999983  C 23.5044187627464 -0.00976562500000777  24.1264445955133 0.371093749999996  24.4731475186948 1.171875  C 24.8402447314752 1.97265625  24.6872875594833 2.67578125  24.0142760027192 3.28125  C 22.2603670972128 4.8046875  20.9194425560843 6.5771484375  19.9915023793338 8.5986328125  C 19.0635622025833 10.6201171875  18.599592114208 12.75390625  18.599592114208 15  C 18.599592114208 17.890625  19.3439836845683 20.556640625  20.8327668252889 22.998046875  C 22.3215499660095 25.439453125  24.3405846363018 27.373046875  26.8898708361659 28.798828125  C 29.4391570360299 30.224609375  32.2229775662814 30.9375  35.2413324269205 30.9375  C 37.6478585995921 30.9375  39.9728076138681 30.439453125  42.2161794697485 29.443359375  C 43.0523453433039 29.091796875  43.7865397688647 29.21875  44.418762746431 29.82421875  C 44.7042828008158 30.09765625  44.8827328348063 30.4296875  44.9541128484024 30.8203125  Z " fill-rule="nonzero" fill="#999999" stroke="none" transform="matrix(1 0 0 1 72 762 )" />
  </g>
</svg>