<?xml version="1.0" encoding="utf-8"?>
<svg version="1.1" xmlns:xlink="http://www.w3.org/1999/xlink" width="42px" height="40px" xmlns="http://www.w3.org/2000/svg">
  <g transform="matrix(1 0 0 1 -330 -72 )">
    <path d="M 32.73046875 22.8385416666667  C 33.0768229166667 22.5086805555556  33.25 22.1180555555556  33.25 21.6666666666667  L 33.25 18.3333333333333  C 33.25 17.8819444444444  33.0768229166667 17.4913194444444  32.73046875 17.1614583333333  C 32.3841145833333 16.8315972222222  31.9739583333333 16.6666666666667  31.5 16.6666666666667  L 24.5 16.6666666666667  L 24.5 10  C 24.5 9.54861111111111  24.3268229166667 9.15798611111111  23.98046875 8.828125  C 23.6341145833333 8.49826388888889  23.2239583333333 8.33333333333334  22.75 8.33333333333334  L 19.25 8.33333333333334  C 18.7760416666667 8.33333333333334  18.3658854166667 8.49826388888889  18.01953125 8.828125  C 17.6731770833333 9.15798611111111  17.5 9.54861111111111  17.5 10  L 17.5 16.6666666666667  L 10.5 16.6666666666667  C 10.0260416666667 16.6666666666667  9.61588541666667 16.8315972222222  9.26953125 17.1614583333333  C 8.92317708333333 17.4913194444444  8.75 17.8819444444444  8.75 18.3333333333333  L 8.75 21.6666666666667  C 8.75 22.1180555555556  8.92317708333333 22.5086805555556  9.26953125 22.8385416666667  C 9.61588541666667 23.1684027777778  10.0260416666667 23.3333333333333  10.5 23.3333333333333  L 17.5 23.3333333333333  L 17.5 30  C 17.5 30.4513888888889  17.6731770833333 30.8420138888889  18.01953125 31.171875  C 18.3658854166667 31.5017361111111  18.7760416666667 31.6666666666667  19.25 31.6666666666667  L 22.75 31.6666666666667  C 23.2239583333333 31.6666666666667  23.6341145833333 31.5017361111111  23.98046875 31.171875  C 24.3268229166667 30.8420138888889  24.5 30.4513888888889  24.5 30  L 24.5 23.3333333333333  L 31.5 23.3333333333333  C 31.9739583333333 23.3333333333333  32.3841145833333 23.1684027777778  32.73046875 22.8385416666667  Z M 39.18359375 9.9609375  C 41.0611979166667 13.0251736111111  42 16.3715277777778  42 20  C 42 23.6284722222222  41.0611979166667 26.9748263888889  39.18359375 30.0390625  C 37.3059895833333 33.1032986111111  34.7584635416667 35.5295138888889  31.541015625 37.3177083333333  C 28.3235677083333 39.1059027777778  24.8098958333333 40  21 40  C 17.1901041666667 40  13.6764322916667 39.1059027777778  10.458984375 37.3177083333333  C 7.24153645833333 35.5295138888889  4.69401041666667 33.1032986111111  2.81640625 30.0390625  C 0.938802083333333 26.9748263888889  0 23.6284722222222  0 20  C 0 16.3715277777778  0.938802083333333 13.0251736111111  2.81640625 9.9609375  C 4.69401041666667 6.89670138888889  7.24153645833333 4.47048611111111  10.458984375 2.68229166666667  C 13.6764322916667 0.894097222222219  17.1901041666667 0  21 0  C 24.8098958333333 0  28.3235677083333 0.894097222222219  31.541015625 2.68229166666667  C 34.7584635416667 4.47048611111111  37.3059895833333 6.89670138888889  39.18359375 9.9609375  Z " fill-rule="nonzero" fill="#333333" stroke="none" transform="matrix(1 0 0 1 330 72 )" />
  </g>
</svg>